<?xml version="1.0" encoding="UTF-8"?>
<svg version="1.1" xmlns="http://www.w3.org/2000/svg" width="1024" height="1024">
<path d="M0 0 C337.92 0 675.84 0 1024 0 C1024 337.92 1024 675.84 1024 1024 C686.08 1024 348.16 1024 0 1024 C0 686.08 0 348.16 0 0 Z " fill="#823FC9" transform="translate(0,0)"/>
<path d="M0 0 C337.92 0 675.84 0 1024 0 C1024 337.92 1024 675.84 1024 1024 C686.08 1024 348.16 1024 0 1024 C0 686.08 0 348.16 0 0 Z M451 80 C449.83789505 80.16069977 449.83789505 80.16069977 448.65231323 80.324646 C444.54422755 80.90633146 440.4584492 81.57882551 436.375 82.3125 C435.17593018 82.52559814 433.97686035 82.73869629 432.74145508 82.95825195 C363.66783916 95.55646971 298.08859847 125.45631677 243 169 C241.99195313 169.79664063 240.98390625 170.59328125 239.9453125 171.4140625 C234.67096185 175.66568588 229.58178252 180.09336169 224.58203125 184.6640625 C223.15903083 185.95143656 221.72949344 187.23210863 220.27319336 188.48168945 C214.56821755 193.38179608 209.24179408 198.60922267 203.9375 203.9375 C203.07833984 204.79279297 202.21917969 205.64808594 201.33398438 206.52929688 C196.3471262 211.52377439 191.57313188 216.62530846 187 222 C186.12277601 223.00944509 185.24519848 224.0185831 184.3671875 225.02734375 C176.89200462 233.75620151 169.87359143 242.79164694 163 252 C162.33701904 252.88292725 162.33701904 252.88292725 161.66064453 253.78369141 C106.11704588 328.10931131 80.7600301 421.01808248 86.36790466 555.28869629 C88.5433178 570.0127047 91.33077682 584.5731656 95 599 C95.24975586 600.0012793 95.49951172 601.00255859 95.75683594 602.03417969 C106.58693427 645.15573401 123.71966775 688.01311461 148.625 725.0625 C149.04467041 725.68825928 149.46434082 726.31401855 149.89672852 726.95874023 C161.94120336 744.8281286 174.74705094 761.83155957 189 778 C189.64437012 778.733396 190.28874023 779.46679199 190.95263672 780.22241211 C196.54864857 786.52217056 202.37192796 792.55817291 208.32861328 798.51391602 C209.8717353 800.05923066 211.40664306 801.61240446 212.94140625 803.16601562 C218.53712719 808.79314306 224.26617194 814.02741961 230.48266602 818.97900391 C232.74967289 820.7990294 234.93060511 822.67642377 237.09765625 824.61328125 C241.36511652 828.38213046 245.86932365 831.79340861 250.4375 835.1875 C251.31293457 835.83895996 252.18836914 836.49041992 253.09033203 837.16162109 C255.72253864 839.11371779 258.36038889 841.0579316 261 843 C261.73460449 843.54382324 262.46920898 844.08764648 263.22607422 844.64794922 C274.18867541 852.73174306 285.64722979 859.76429396 297.45800781 866.53955078 C299.69573335 867.82518987 301.92353319 869.12595532 304.1484375 870.43359375 C365.79170396 906.32923245 438.35598053 924.18496046 509.4375 924.25 C510.61247543 924.25151062 510.61247543 924.25151062 511.81118774 924.25305176 C582.73036593 924.19249416 652.86204973 906.18153184 715 872 C715.83354004 871.54399414 716.66708008 871.08798828 717.52587891 870.61816406 C742.27638374 857.00748826 765.96027663 841.11060093 787.23730469 822.49145508 C788.570376 821.36351427 789.93016851 820.26705326 791.30175781 819.1862793 C799.01027128 813.07980219 805.92260802 806.35153228 812.83544922 799.37036133 C814.75562183 797.4318244 816.68378456 795.50151789 818.61328125 793.57226562 C824.61541865 787.55338667 830.55313691 781.53387461 836 775 C836.53093262 774.37585205 837.06186523 773.7517041 837.60888672 773.10864258 C855.63081607 751.84768734 871.22296153 729.20633788 885 705 C885.47050781 704.17935059 885.94101562 703.35870117 886.42578125 702.51318359 C904.27589123 671.22250598 916.81422795 637.77547229 926 603 C926.24588867 602.08089844 926.49177734 601.16179688 926.74511719 600.21484375 C929.61101623 589.37266932 931.76001268 578.42024778 933.6875 567.375 C933.89012451 566.25174316 934.09274902 565.12848633 934.30151367 563.97119141 C937.83744251 542.76151896 938.35436184 521.17846461 938.31567383 499.72094727 C938.31250383 496.0669185 938.3361522 492.41369612 938.36132812 488.75976562 C938.40624602 472.00202766 937.18554273 455.61121112 935 439 C934.89767059 438.21905975 934.79534119 437.43811951 934.68991089 436.6335144 C934.1512845 432.63462871 933.5173608 428.66021015 932.8125 424.6875 C932.50820068 422.94279419 932.50820068 422.94279419 932.19775391 421.1628418 C928.65160906 401.74685935 923.9743119 381.66717464 916.85791016 363.24365234 C915.79877638 360.47374926 914.79871956 357.68425732 913.79296875 354.89453125 C898.38540881 312.73498859 876.56862287 274.41528836 849 239 C848.24332031 238.02546875 847.48664062 237.0509375 846.70703125 236.046875 C842.77951057 231.06104036 838.65612575 226.29913172 834.37109375 221.6171875 C833.0962761 220.21005764 831.82707919 218.79717717 830.59521484 217.35229492 C825.47435812 211.36240189 819.96410875 205.77797704 814.39501953 200.2097168 C812.76172552 198.57424118 811.1366153 196.93092292 809.51171875 195.28710938 C802.98545012 188.72628831 796.26216865 182.74808072 789 177 C787.16390858 175.44074195 785.32995036 173.87896067 783.5 172.3125 C758.4915239 151.51496268 730.33771806 134.04585467 701.03076172 119.97851562 C698.87953397 118.94195385 696.73877359 117.88539783 694.59765625 116.828125 C674.4161198 106.95560494 653.48293281 99.50019273 632 93 C631.19256348 92.75266113 630.38512695 92.50532227 629.55322266 92.25048828 C616.23832422 88.20666155 602.66447562 85.56988195 589 83 C588.18047852 82.84257324 587.36095703 82.68514648 586.51660156 82.52294922 C578.68687785 81.02165978 570.85955087 79.77913319 562.9375 78.875 C562.2782251 78.79934814 561.6189502 78.72369629 560.93969727 78.64575195 C558.62833564 78.40062852 556.31614368 78.19515275 554 78 C552.980271 77.91169922 551.96054199 77.82339844 550.90991211 77.73242188 C538.16841688 76.78119377 525.41293082 76.77874623 512.64135742 76.75976562 C508.73399105 76.75011483 504.82716433 76.7190279 500.91992188 76.6875 C484.08247177 76.61647693 467.67611237 77.67593941 451 80 Z " fill="#E6DFE6" transform="translate(0,0)"/>
<path d="M0 0 C1.06661865 0.34740234 2.1332373 0.69480469 3.23217773 1.05273438 C18.99853971 6.27019336 34.16651641 12.47742449 48.8125 20.3125 C49.96878906 20.92609375 51.12507813 21.5396875 52.31640625 22.171875 C67.01058984 30.26287029 80.24096269 40.2573052 92.8125 51.3125 C93.53566406 51.92480469 94.25882813 52.53710938 95.00390625 53.16796875 C105.06431705 61.72439894 113.58863256 71.10314488 121.5234375 81.61328125 C122.72889335 83.20229123 123.95739337 84.77374548 125.1875 86.34375 C146.57970445 113.97534742 160.95654727 148.17461535 165.46411133 182.77026367 C165.72584985 184.68020286 166.01715345 186.58612762 166.32299805 188.48950195 C167.64421089 196.91407292 168.16340885 205.10162407 168.125 213.625 C168.12081055 214.91809082 168.11662109 216.21118164 168.11230469 217.54345703 C167.90521096 235.51875176 165.83174467 253.04198069 160.8125 270.3125 C160.43686424 271.70781309 160.06322827 273.1036658 159.69140625 274.5 C156.95557584 284.5458233 153.29066247 293.92124562 148.8125 303.3125 C148.4937793 303.98168457 148.17505859 304.65086914 147.84667969 305.34033203 C145.58714366 310.04300547 143.23031472 314.68943876 140.8125 319.3125 C139.90757812 321.05466797 139.90757812 321.05466797 138.984375 322.83203125 C131.90685965 335.84216975 122.63020791 347.27747397 112.8125 358.3125 C112.04164063 359.18777344 111.27078125 360.06304688 110.4765625 360.96484375 C102.18453075 370.25763795 93.59681494 378.59492538 83.8125 386.3125 C82.84828125 387.09367187 81.8840625 387.87484375 80.890625 388.6796875 C60.37931044 404.97420896 37.34098446 417.28218351 12.8125 426.3125 C11.59602783 426.77052002 11.59602783 426.77052002 10.35498047 427.23779297 C-32.1309184 443.08013591 -80.7788344 446.13161221 -125.1875 437.3125 C-126.62536865 437.03237061 -126.62536865 437.03237061 -128.09228516 436.74658203 C-135.15506583 435.36274925 -135.15506583 435.36274925 -138.57519531 434.62011719 C-140.77359062 434.14702019 -142.97743774 433.72725177 -145.1875 433.3125 C-146.34668945 433.04469727 -146.34668945 433.04469727 -147.52929688 432.77148438 C-155.4577063 431.34551146 -160.71501986 434.42164162 -167.5625 438.1875 C-169.8786986 439.40132272 -172.19642248 440.61223916 -174.515625 441.8203125 C-175.65064453 442.41875977 -176.78566406 443.01720703 -177.95507812 443.63378906 C-193.12794992 451.51359771 -209.09669264 457.59944767 -225.1875 463.3125 C-225.89616211 463.56435059 -226.60482422 463.81620117 -227.33496094 464.07568359 C-236.30226634 467.20560461 -246.38982561 470.53331322 -255.52734375 466.38671875 C-258.46454236 464.48617848 -259.7380146 462.4530517 -261.1875 459.3125 C-261.47609076 454.50808353 -260.92779655 450.64037252 -259.50390625 446.0625 C-259.13797363 444.84433594 -258.77204102 443.62617187 -258.39501953 442.37109375 C-258.19805481 441.71737793 -258.00109009 441.06366211 -257.79815674 440.39013672 C-256.70007231 436.65412533 -255.71011632 432.88946504 -254.71484375 429.125 C-254.50348785 428.32650635 -254.29213196 427.5280127 -254.07437134 426.70532227 C-253.64154615 425.06708638 -253.20945348 423.4286568 -252.77807617 421.79003906 C-252.12561841 419.31484602 -251.46816198 416.84101461 -250.81054688 414.3671875 C-248.34955861 405.05906394 -246.09053051 395.75353349 -244.1875 386.3125 C-244.79988525 385.84086426 -245.41227051 385.36922852 -246.04321289 384.88330078 C-252.2868373 379.99366508 -258.03944421 374.81290724 -263.625 369.1875 C-264.86431274 367.94081543 -264.86431274 367.94081543 -266.12866211 366.66894531 C-272.73552528 359.93568772 -278.72806593 352.9994546 -284.1875 345.3125 C-284.59194336 344.75240234 -284.99638672 344.19230469 -285.41308594 343.61523438 C-296.20625145 328.54746338 -305.78227548 311.72440343 -312.1875 294.3125 C-312.46400391 293.56194336 -312.74050781 292.81138672 -313.02539062 292.03808594 C-333.23478464 236.05498248 -327.98573629 175.24883032 -303.34472656 121.73583984 C-298.01666321 110.5783806 -291.49296006 100.27561473 -284.1875 90.3125 C-283.79449707 89.7752832 -283.40149414 89.23806641 -282.99658203 88.68457031 C-276.90072674 80.4044283 -270.31382986 72.71985503 -263.1875 65.3125 C-262.66752441 64.77061035 -262.14754883 64.2287207 -261.61181641 63.67041016 C-254.540334 56.34371636 -247.2888698 49.51021014 -239.1875 43.3125 C-238.63368652 42.88759277 -238.07987305 42.46268555 -237.50927734 42.02490234 C-223.26296108 31.15734459 -208.4118883 21.91996099 -192.1875 14.3125 C-191.49994629 13.98540039 -190.81239258 13.65830078 -190.10400391 13.32128906 C-132.6655907 -13.8535891 -60.85904472 -20.03671589 0 0 Z " fill="#FDFDF6" transform="translate(587.1875,258.6875)"/>
<path d="M0 0 C1.64778442 -0.00856522 1.64778442 -0.00856522 3.32885742 -0.01730347 C5.15347504 -0.01898026 5.15347504 -0.01898026 7.01495361 -0.02069092 C8.92504211 -0.02813828 8.92504211 -0.02813828 10.87371826 -0.03573608 C14.38322107 -0.04889873 17.89270469 -0.05531569 21.40222836 -0.05974674 C23.60264021 -0.06267893 25.80304687 -0.06678462 28.00345612 -0.07125092 C34.90888977 -0.0849528 41.81431149 -0.09459911 48.7197578 -0.09845281 C56.64794464 -0.10290242 64.57595638 -0.12029276 72.50409007 -0.1494534 C78.65216176 -0.17126569 84.80018501 -0.18116781 90.94829488 -0.18249393 C94.60822478 -0.18353065 98.26799078 -0.1891879 101.92787933 -0.20731354 C136.46679808 -0.36861203 174.08941495 2.4074218 200.4487915 27.51495361 C212.65054513 39.62425542 219.59615493 54.37469705 222.93389893 71.14044189 C223.1059082 71.91814941 223.27791748 72.69585693 223.45513916 73.49713135 C227.41176203 95.34228986 222.20927299 118.60519594 210.19171143 137.04278564 C193.63013106 159.76481545 169.10701295 171.05509668 141.92657471 175.80151367 C125.65290564 178.27375937 109.0762771 177.57943573 92.66455078 177.4151001 C88.05779518 177.37350039 83.45094615 177.35576984 78.84405518 177.33575439 C69.87376499 177.2934021 60.90387881 177.22552666 51.93389893 177.14044189 C51.93611954 178.10066254 51.93834015 179.06088318 51.94062805 180.05020142 C51.9608717 189.08528914 51.97587699 198.12037229 51.9857111 207.15547752 C51.9909368 211.80086586 51.99802882 216.44623594 52.00933838 221.09161377 C52.02017831 225.57196864 52.02617812 230.05230591 52.02877617 234.53267288 C52.03062841 236.24474998 52.03424521 237.95682608 52.03962898 239.66889572 C52.04685407 242.06096249 52.04788924 244.45295588 52.04742432 246.84503174 C52.05101959 247.55784805 52.05461487 248.27066437 52.05831909 249.00508118 C52.04795109 253.91233757 52.04795109 253.91233757 50.93389893 256.14044189 C43.64968344 256.16357105 36.36547583 256.18135991 29.08123112 256.19225407 C25.6991808 256.19748164 22.31715553 256.204577 18.93511963 256.21588135 C15.05060115 256.22878456 11.16609296 256.23367113 7.28155518 256.23809814 C6.06178482 256.24325943 4.84201447 256.24842072 3.58528137 256.2537384 C1.9036515 256.2538517 1.9036515 256.2538517 0.18804932 256.25396729 C-0.80456406 256.2561879 -1.79717743 256.25840851 -2.81987 256.26069641 C-5.06610107 256.14044189 -5.06610107 256.14044189 -6.06610107 255.14044189 C-6.16338656 253.78091708 -6.19165508 252.41637639 -6.19194221 251.05337524 C-6.19454996 250.16721842 -6.19715771 249.28106159 -6.19984448 248.36805153 C-6.19761376 247.38334562 -6.19538304 246.39863972 -6.19308472 245.38409424 C-6.19464471 244.34672308 -6.1962047 243.30935192 -6.19781196 242.24054527 C-6.20182685 238.73580921 -6.19863043 235.23111584 -6.19549561 231.72637939 C-6.19684943 229.22542292 -6.19862925 226.72446664 -6.20080566 224.22351074 C-6.20490612 218.11853822 -6.20428666 212.01358269 -6.20139302 205.90861082 C-6.1991392 200.949164 -6.19882638 195.98972062 -6.19991684 191.03027344 C-6.20007007 190.3257559 -6.20022331 189.62123835 -6.20038118 188.89537179 C-6.20070089 187.46438106 -6.2010251 186.03339032 -6.20135377 184.60239959 C-6.20420872 171.1682863 -6.20092131 157.73417983 -6.19555341 144.30006766 C-6.19108535 132.76052754 -6.19186128 121.22099747 -6.19647217 109.68145752 C-6.20181767 96.29704688 -6.20393403 82.91264222 -6.2008599 69.52823067 C-6.20054134 68.10235723 -6.20022697 66.67648379 -6.19991684 65.25061035 C-6.19968543 64.19813789 -6.19968543 64.19813789 -6.19944934 63.12440336 C-6.19858411 58.16805782 -6.20004718 53.21171605 -6.20239639 48.25537109 C-6.20548575 41.59064935 -6.20330198 34.92594375 -6.19750214 28.26122284 C-6.19617379 25.80733014 -6.19656991 23.35343584 -6.1987648 20.89954376 C-6.20147339 17.56527026 -6.19809877 14.23105902 -6.19308472 10.89678955 C-6.19531544 9.91208364 -6.19754616 8.92737774 -6.19984448 7.91283226 C-6.19723673 7.02667543 -6.19462898 6.14051861 -6.19194221 5.22750854 C-6.19177986 4.45683863 -6.19161751 3.68616871 -6.19145024 2.89214516 C-5.92139285 -0.88179633 -3.1586258 0.0097877 0 0 Z " fill="#6D2DB2" transform="translate(411.06610107421875,350.85955810546875)"/>
<path d="M0 0 C9.2070763 -0.09350945 18.41398414 -0.16416888 27.62143517 -0.20724869 C31.89883817 -0.2279458 36.1759116 -0.25592721 40.453125 -0.30175781 C44.596423 -0.34586544 48.73940811 -0.36927064 52.88292313 -0.37950897 C54.44785094 -0.38678598 56.01276558 -0.40098764 57.57755661 -0.42292023 C72.22606955 -0.61969304 88.36436774 0.15030199 100 10 C101.3303125 10.86625 101.3303125 10.86625 102.6875 11.75 C110.16965237 19.02993204 114.05468385 28.96335954 114.4375 39.25 C114.12634101 50.83052583 110.32540484 61.2083491 102.41015625 69.70703125 C91.62137894 79.73424781 76.29736222 83.14021855 61.96313477 83.11352539 C61.29886978 83.11367142 60.6346048 83.11381744 59.95021057 83.1139679 C57.78057451 83.11327785 55.61102709 83.10552854 53.44140625 83.09765625 C51.92683458 83.09578884 50.41226231 83.09436646 48.89768982 83.09336853 C44.93081973 83.0895688 40.96398684 83.07976051 36.99713135 83.06866455 C32.94145206 83.05839546 28.8857667 83.05385918 24.83007812 83.04882812 C16.88670177 83.03813573 8.94335553 83.02109021 1 83 C-0.53634851 79.92730298 -0.12967825 76.70798882 -0.11352539 73.33740234 C-0.11367142 72.54707108 -0.11381744 71.75673981 -0.1139679 70.94245911 C-0.11326983 68.32359089 -0.10548239 65.70479333 -0.09765625 63.0859375 C-0.09579169 61.27275634 -0.09436797 59.45957467 -0.09336853 57.64639282 C-0.08954632 52.86896377 -0.07971855 48.09156501 -0.06866455 43.31414795 C-0.05844407 38.44120697 -0.05386954 33.5682611 -0.04882812 28.6953125 C-0.03809603 19.13019501 -0.02102314 9.56510002 0 0 Z " fill="#FBFBF5" transform="translate(462,399)"/>
<path d="M0 0 C1.11008423 -0.00426498 2.22016846 -0.00852997 3.3638916 -0.01292419 C5.20736176 -0.01224442 5.20736176 -0.01224442 7.08807373 -0.0115509 C8.37431641 -0.01490952 9.66055908 -0.01826813 10.98577881 -0.02172852 C14.52780654 -0.03059521 18.06981013 -0.03290801 21.61184788 -0.0335443 C23.82827824 -0.03425441 26.04470245 -0.03638818 28.26113129 -0.03904152 C36.00488169 -0.04831048 43.74861484 -0.05237531 51.49237061 -0.05158997 C58.68862806 -0.05099184 65.88480989 -0.06148731 73.08104825 -0.07733363 C79.269759 -0.090471 85.45844527 -0.09577113 91.64716983 -0.09513456 C95.33810243 -0.09488097 99.02896817 -0.0976533 102.71988678 -0.10831261 C106.85308345 -0.11992053 110.98611507 -0.11520917 115.11932373 -0.10920715 C116.32401306 -0.11482666 117.52870239 -0.12044617 118.76989746 -0.12623596 C126.63767395 -0.09738671 134.14038483 0.72691229 141.88006592 2.13371277 C141.88006592 2.46371277 141.88006592 2.79371277 141.88006592 3.13371277 C140.29684398 3.16176198 138.71345892 3.18055775 137.13006592 3.19621277 C135.80748779 3.21361511 135.80748779 3.21361511 134.45819092 3.23136902 C131.41865777 3.14841233 128.46597828 2.92064139 125.44152832 2.63470459 C119.05518712 2.09445642 112.72460031 1.99920472 106.31854248 2.02018738 C105.12685455 2.02004135 103.93516663 2.01989532 102.70736694 2.01974487 C98.81178903 2.02043538 94.91626037 2.02818703 91.02069092 2.03605652 C88.30257189 2.03848358 85.5844529 2.03939548 82.86633301 2.04034424 C76.47060063 2.04343605 70.07488561 2.05162008 63.67916083 2.06169373 C56.39002729 2.07292211 49.10089286 2.07838217 41.8117528 2.08338916 C26.83451421 2.0938048 11.85729181 2.11136205 -3.11993408 2.13371277 C-4.07191876 36.03514944 -4.21959902 69.92828238 -4.21759033 103.84074402 C-4.21752597 104.92730711 -4.21746161 106.01387019 -4.21739531 107.13335943 C-4.21574579 120.61630092 -4.20538327 134.09923035 -4.19196069 147.58216465 C-4.18057549 159.22998498 -4.17523287 170.87780604 -4.17025769 182.52563059 C-4.15993399 206.39499895 -4.14167029 230.26435189 -4.11993408 254.13371277 C13.70006592 254.46371277 31.52006592 254.79371277 49.88006592 255.13371277 C49.88006592 229.39371277 49.88006592 203.65371277 49.88006592 177.13371277 C50.21006592 177.13371277 50.54006592 177.13371277 50.88006592 177.13371277 C50.88006592 203.20371277 50.88006592 229.27371277 50.88006592 256.13371277 C41.66069092 256.15433777 32.44131592 256.17496277 22.94256592 256.19621277 C20.02807617 256.20531677 17.11358643 256.21442078 14.11077881 256.22380066 C11.81642706 256.22671958 9.52207481 256.22926819 7.22772217 256.23136902 C6.02369751 256.23648499 4.81967285 256.24160095 3.5791626 256.24687195 C2.44233032 256.2469928 1.30549805 256.24711365 0.13421631 256.24723816 C-0.85839706 256.24945877 -1.85101044 256.25167938 -2.873703 256.25396729 C-5.11993408 256.13371277 -5.11993408 256.13371277 -6.11993408 255.13371277 C-6.21721957 253.77418795 -6.24548809 252.40964726 -6.24577522 251.04664612 C-6.24838297 250.16048929 -6.25099072 249.27433247 -6.25367749 248.3613224 C-6.25144677 247.3766165 -6.24921604 246.39191059 -6.24691772 245.37736511 C-6.24847772 244.33999395 -6.25003771 243.3026228 -6.25164497 242.23381615 C-6.25565985 238.72908009 -6.25246344 235.22438671 -6.24932861 231.71965027 C-6.25068244 229.21869379 -6.25246226 226.71773751 -6.25463867 224.21678162 C-6.25873913 218.11180909 -6.25811967 212.00685357 -6.25522603 205.90188169 C-6.25297221 200.94243487 -6.25265938 195.9829915 -6.25374985 191.02354431 C-6.25390308 190.31902677 -6.25405631 189.61450923 -6.25421419 188.88864267 C-6.2545339 187.45765193 -6.25485811 186.0266612 -6.25518678 184.59567046 C-6.25804173 171.16155718 -6.25475432 157.7274507 -6.24938641 144.29333854 C-6.24491836 132.75379841 -6.24569429 121.21426834 -6.25030518 109.67472839 C-6.25565068 96.29031776 -6.25776704 82.9059131 -6.25469291 69.52150154 C-6.25437435 68.0956281 -6.25405998 66.66975467 -6.25374985 65.24388123 C-6.25351843 64.19140876 -6.25351843 64.19140876 -6.25328235 63.11767423 C-6.25241712 58.16132869 -6.25388019 53.20498692 -6.2562294 48.24864197 C-6.25931876 41.58392023 -6.25713499 34.91921462 -6.25133514 28.25449371 C-6.2500068 25.80060101 -6.25040291 23.34670672 -6.25259781 20.89281464 C-6.2553064 17.55854114 -6.25193177 14.22432989 -6.24691772 10.89006042 C-6.24914845 9.90535452 -6.25137917 8.92064861 -6.25367749 7.90610313 C-6.25106974 7.01994631 -6.24846199 6.13378948 -6.24577522 5.22077942 C-6.24561287 4.4501095 -6.24545052 3.67943958 -6.24528325 2.88541603 C-5.97393486 -0.90656666 -3.16727072 0.00547001 0 0 Z " fill="#471A7D" transform="translate(411.11993408203125,350.8662872314453)"/>
<path d="M0 0 C0.99 1.485 0.99 1.485 2 3 C-0.32398984 12.42120434 -5.57882861 21.42208134 -10 30 C-10.73150223 31.49886241 -11.46112963 32.99864391 -12.1875 34.5 C-14.22768603 38.43966958 -16.27252171 42.35209684 -19.51049805 45.44091797 C-21.10462881 47.1095164 -21.84452219 48.53015111 -22.76953125 50.6328125 C-25.13465968 55.54250063 -28.30345902 59.62651271 -31.6875 63.875 C-32.62070068 65.05799683 -32.62070068 65.05799683 -33.57275391 66.26489258 C-39.83780847 74.15100363 -46.18734891 81.7118775 -53.91015625 88.2265625 C-56.28487827 90.24174717 -58.57633401 92.33606744 -60.875 94.4375 C-65.01979145 98.1811826 -69.29370057 101.70205107 -73.6875 105.1484375 C-75.75834956 106.80651637 -77.72265914 108.53186297 -79.6875 110.3125 C-82.828301 113.06162464 -86.16236164 114.36545033 -90 116 C-90.721875 116.763125 -91.44375 117.52625 -92.1875 118.3125 C-96.47768192 122.41200717 -101.67630779 124.48299437 -107 127 C-110.99963113 128.96731082 -114.97381733 130.98138426 -118.9296875 133.03515625 C-125.50092683 136.42578448 -131.78246454 139.54747826 -138.97265625 141.42578125 C-141.84220267 142.23854295 -144.34943198 143.64651846 -147 145 C-153.22609094 147.47152851 -159.73960513 148.99629632 -166.23974609 150.55444336 C-169.18942228 151.26672107 -172.0553795 152.01982081 -174.9140625 153.04296875 C-178.97220386 154.30150626 -182.97450818 154.78530666 -187.1875 155.25 C-187.99380859 155.353125 -188.80011719 155.45625 -189.63085938 155.5625 C-190.40623047 155.65015625 -191.18160156 155.7378125 -191.98046875 155.828125 C-192.68067139 155.9096582 -193.38087402 155.99119141 -194.10229492 156.07519531 C-196 156 -196 156 -199 154 C-198.1656543 153.84966309 -197.33130859 153.69932617 -196.47167969 153.54443359 C-172.64047246 149.2076128 -150.31735479 143.6035335 -128 134 C-127.27216309 133.68836914 -126.54432617 133.37673828 -125.79443359 133.05566406 C-102.8693787 123.10655872 -81.16560104 109.1809236 -63 92 C-61.65087064 90.82751186 -60.2968542 89.66061821 -58.9375 88.5 C-37.36424874 69.6668996 -21.1521412 45.76280453 -9 20 C-8.71108887 19.38930664 -8.42217773 18.77861328 -8.12451172 18.14941406 C-5.29777064 12.15053184 -2.56071068 6.11725329 0 0 Z " fill="#441C7C" transform="translate(743,544)"/>
<path d="M0 0 C0.66 0.33 1.32 0.66 2 1 C-4.72870449 6.60725374 -12.0497591 10.19171681 -19.88427734 13.96777344 C-21.91156964 14.95685627 -23.92063196 15.97468849 -25.92578125 17.0078125 C-34.010519 21.16146721 -42.19386998 24.88061637 -50.6184082 28.29882812 C-53.77644182 29.58899835 -56.73104259 30.83743898 -59.65625 32.60546875 C-62.46151445 34.2746011 -65.17838577 35.09917675 -68.3125 36 C-71.85499112 37.02557041 -75.33678348 38.09977796 -78.78125 39.4140625 C-99.68093141 47.37917718 -121.24945932 52.22711266 -143.1875 56.25 C-144.25455673 56.44651657 -144.25455673 56.44651657 -145.34317017 56.64700317 C-153.20765735 58.086573 -161.02629517 59.36018084 -169 60 C-170.79833855 60.16491531 -172.59651185 60.33164073 -174.39453125 60.5 C-177.12415583 60.75226855 -179.85381164 61.00372649 -182.58398438 61.25 C-183.47021484 61.3325 -184.35644531 61.415 -185.26953125 61.5 C-186.45446167 61.60828125 -186.45446167 61.60828125 -187.66333008 61.71875 C-190.02675894 61.96662068 -190.02675894 61.96662068 -192.4230957 62.52294922 C-195.3195108 63.05914961 -198.01529667 63.12959724 -200.9609375 63.1328125 C-202.73041748 63.13583374 -202.73041748 63.13583374 -204.53564453 63.13891602 C-205.80263184 63.13432373 -207.06961914 63.12973145 -208.375 63.125 C-209.68452637 63.12234131 -210.99405273 63.11968262 -212.34326172 63.11694336 C-222.27449737 63.07925239 -232.19864977 62.86802153 -242.125 62.5625 C-243.13249298 62.53316376 -243.13249298 62.53316376 -244.16033936 62.50323486 C-246.06799373 62.44618056 -247.97541405 62.38145669 -249.8828125 62.31640625 C-250.96965332 62.27974854 -252.05649414 62.24309082 -253.17626953 62.20532227 C-255.60335475 62.02884132 -257.66463053 61.62806559 -260 61 C-260.886875 61 -261.77375 61 -262.6875 61 C-263.450625 61 -264.21375 61 -265 61 C-265.33 60.67 -265.66 60.34 -266 60 C-267.92906577 59.67675523 -269.86773511 59.41055823 -271.80859375 59.16796875 C-273.02272949 59.01118652 -274.23686523 58.8544043 -275.48779297 58.69287109 C-277.44289795 58.4427124 -277.44289795 58.4427124 -279.4375 58.1875 C-293.23433895 56.37376157 -306.63497569 53.90244896 -320 50 C-316.86434119 49.00009637 -314.84243866 49.0433112 -311.66015625 49.8203125 C-310.78053223 50.02366211 -309.9009082 50.22701172 -308.99462891 50.43652344 C-307.5432251 50.77731934 -307.5432251 50.77731934 -306.0625 51.125 C-295.14395543 53.54068301 -284.20037135 55.25005058 -273.125 56.75 C-271.97609787 56.9095517 -271.97609787 56.9095517 -270.8039856 57.07232666 C-253.76153509 59.42566781 -236.75745374 60.23426663 -219.5625 60.25 C-218.38752457 60.25151062 -218.38752457 60.25151062 -217.18881226 60.25305176 C-145.09476796 60.19149095 -72.21234347 41.9337675 -9.77734375 5.55859375 C-8.79991211 4.98939209 -8.79991211 4.98939209 -7.80273438 4.40869141 C-6.05861723 3.38368015 -4.32385091 2.34280422 -2.58984375 1.30078125 C-1.73519531 0.87152344 -0.88054687 0.44226563 0 0 Z " fill="#B793E4" transform="translate(729,863)"/>
<path d="M0 0 C0.33 0 0.66 0 1 0 C1.10546143 0.68400879 1.21092285 1.36801758 1.31958008 2.07275391 C2.50486662 9.72212891 3.73326674 17.3636911 5 25 C5.21527344 26.29808594 5.43054688 27.59617187 5.65234375 28.93359375 C11.21900294 58.07669184 24.82488111 86.62672338 43 110 C43.96873047 111.25683594 43.96873047 111.25683594 44.95703125 112.5390625 C55.58127393 126.076066 67.67594873 140.25964514 82 150 C79.17066445 163.48095174 75.7265717 176.74042476 72 190 C71.67 190 71.34 190 71 190 C70.74117486 180.31254457 73.11573088 171.17666844 76.37109375 162.109375 C77.46062629 158.45504225 77.69902786 154.79224892 78 151 C76.515 150.01 76.515 150.01 75 149 C75 148.34 75 147.68 75 147 C74.01 146.67 73.02 146.34 72 146 C72 145.34 72 144.68 72 144 C71.34 144 70.68 144 70 144 C68.78119174 142.51766563 67.56517075 141.03276806 66.375 139.52734375 C64.54328475 137.49268277 62.36025966 136.34871981 60 135 C60 134.34 60 133.68 60 133 C58.68 132.34 57.36 131.68 56 131 C56 130.34 56 129.68 56 129 C54.87139144 127.83719118 53.73595702 126.68036706 52.5703125 125.5546875 C48.07081372 121.09995985 44.18526978 117.0094919 42 111 C41.01 110.67 40.02 110.34 39 110 C37.96708324 108.01679982 36.9662501 106.01652194 36 104 C35.01 103.505 35.01 103.505 34 103 C32.98234073 101.00892752 31.98422146 99.00781177 31 97 C30.505 96.360625 30.01 95.72125 29.5 95.0625 C27.43638108 92.22502399 26.31306536 89.25139994 25 86 C24.34 86 23.68 86 23 86 C22.79246094 85.36835937 22.58492188 84.73671875 22.37109375 84.0859375 C20.45950198 78.5351229 18.23212089 73.38734299 15.5 68.1875 C12.34708128 62.09724674 10.49791582 56.36614225 8.921875 49.66796875 C8.61765625 48.78753906 8.3134375 47.90710938 8 47 C7.01 46.67 6.02 46.34 5 46 C5.061875 44.2365625 5.061875 44.2365625 5.125 42.4375 C5.13225792 38.34403186 4.29865281 34.89595844 3 31 C1.73323776 27.19971328 1.37124271 23.39912408 0.9375 19.4375 C0.84807129 18.63135254 0.75864258 17.82520508 0.66650391 16.99462891 C0.06505827 11.29750673 -0.1849019 5.73195884 0 0 Z " fill="#502C84" transform="translate(262,495)"/>
<path d="M0 0 C0.33 0 0.66 0 1 0 C1.6503259 4.1243045 2.29442956 8.2495585 2.9375 12.375 C3.11990234 13.53128906 3.30230469 14.68757813 3.49023438 15.87890625 C4.42315841 21.8835446 5.26083063 27.86614584 5.80493164 33.91918945 C6.1632614 37.74152303 6.65741295 41.53392896 7.53125 45.2734375 C8.08734548 48.50805957 8.05688863 51.53073716 8 54.8125 C7.94127768 60.21562075 8.11695205 65.54290807 8.5 70.9375 C9.43902176 84.76355671 8.87622247 98.24536209 7.71166992 112.04052734 C7.62119385 113.11254395 7.53071777 114.18456055 7.4375 115.2890625 C7.35371094 116.24506348 7.26992188 117.20106445 7.18359375 118.18603516 C7.05282425 120.19035599 7 122.20040212 7 124.20898438 C7 126.98826126 6.57929374 129.28858347 6 132 C5.55846687 135.42878069 5.14601662 138.85876208 4.75 142.29296875 C4.38584793 145.33705247 3.97260529 148.08218414 3 151 C1.78494804 156.32133055 0.8685328 161.69330032 0.03515625 167.0859375 C-0.12533203 168.11847656 -0.28582031 169.15101563 -0.45117188 170.21484375 C-0.77882564 172.34393526 -1.09898941 174.47419131 -1.41210938 176.60546875 C-1.65477539 178.14267578 -1.65477539 178.14267578 -1.90234375 179.7109375 C-2.04148193 180.63181152 -2.18062012 181.55268555 -2.32397461 182.50146484 C-3.06704937 185.24780905 -4.16130682 186.85553745 -6 189 C-7.4162482 184.7512554 -5.98264227 181.38326933 -4.875 177.1875 C-2.6629753 168.30656095 -0.86196875 159.39474348 0.6875 150.375 C0.88939941 149.25375732 1.09129883 148.13251465 1.29931641 146.97729492 C4.84237046 125.76756608 5.35436332 104.17928542 5.31567383 82.72094727 C5.31250383 79.0669185 5.3361522 75.41369612 5.36132812 71.75976562 C5.41903364 49.99049645 3.2206661 28.63001497 -0.17170715 7.14122009 C-0.48635265 5.09971637 -0.74937788 3.05034822 -1 1 C-0.67 0.67 -0.34 0.34 0 0 Z " fill="#C9A3ED" transform="translate(932,417)"/>
<path d="M0 0 C0.99 0.495 0.99 0.495 2 1 C-15.21946513 15.10046767 -34.57884222 26.24128884 -54 37 C-55.05501709 37.59240479 -55.05501709 37.59240479 -56.13134766 38.19677734 C-91.08190634 57.77010744 -129.80408835 71.0325595 -168.875 79.5 C-169.61137695 79.66040771 -170.34775391 79.82081543 -171.10644531 79.98608398 C-175.50702296 80.8779109 -179.53975419 81.1397466 -184 81 C-181.06692807 78.48456199 -179.19899339 77.63680681 -175.3515625 77.45703125 C-170.16503268 77.07435613 -165.39122975 76.02032675 -160.375 74.6875 C-158.61466623 74.23145074 -156.85424851 73.77572541 -155.09375 73.3203125 C-154.23136719 73.09504883 -153.36898437 72.86978516 -152.48046875 72.63769531 C-150.25226109 72.06485295 -148.02052786 71.51977168 -145.78125 70.9921875 C-124.54819049 65.97174387 -102.35455148 58.84578145 -83.08203125 48.6171875 C-78.73487419 46.33616973 -74.30778947 44.23362339 -69.875 42.125 C-69.03155029 41.71894531 -68.18810059 41.31289063 -67.3190918 40.89453125 C-66.53058838 40.51941406 -65.74208496 40.14429688 -64.9296875 39.7578125 C-64.22054199 39.4189502 -63.51139648 39.08008789 -62.78076172 38.73095703 C-61 38 -61 38 -59 38 C-59 37.34 -59 36.68 -59 36 C-52.375 33 -52.375 33 -49 33 C-49 32.34 -49 31.68 -49 31 C-47.824375 30.443125 -46.64875 29.88625 -45.4375 29.3125 C-42.66668598 27.93193707 -40.1627433 26.48143247 -37.6875 24.625 C-34.81692615 22.48511768 -31.8535219 20.79694415 -28.6875 19.125 C-23.98264524 16.61789246 -19.68582079 13.7901214 -15.3671875 10.671875 C-12.4951978 8.64347303 -9.52378216 6.82790377 -6.49609375 5.04296875 C-4.83021298 4.05874216 -4.83021298 4.05874216 -4 2 C-2.0625 0.8125 -2.0625 0.8125 0 0 Z " fill="#54219D" transform="translate(767,836)"/>
<path d="M0 0 C1.32 0 2.64 0 4 0 C4 0.66 4 1.32 4 2 C4.85851562 2.41765625 4.85851562 2.41765625 5.734375 2.84375 C7.96617566 3.98273792 10.10870874 5.19936383 12.25 6.5 C12.95640625 6.9228125 13.6628125 7.345625 14.390625 7.78125 C14.92171875 8.1834375 15.4528125 8.585625 16 9 C16 9.66 16 10.32 16 11 C16.66 11 17.32 11 18 11 C18 11.66 18 12.32 18 13 C18.721875 13.2475 19.44375 13.495 20.1875 13.75 C23.27606582 15.12269592 25.51011418 16.72353296 28 19 C28 19.66 28 20.32 28 21 C28.69480469 21.21269531 29.38960937 21.42539063 30.10546875 21.64453125 C33.79606161 23.37278459 36.41690826 25.89041808 39.3125 28.6875 C40.47186424 29.78469167 41.63201689 30.88105086 42.79296875 31.9765625 C43.34774902 32.50282227 43.9025293 33.02908203 44.47412109 33.57128906 C46.31139639 35.29156667 48.20633249 36.93381743 50.125 38.5625 C57.48325098 44.94068795 64.33800144 51.95644673 70.5625 59.44140625 C72.11338063 61.24571097 72.11338063 61.24571097 75 63 C75 63.66 75 64.32 75 65 C75.66 65.33 76.32 65.66 77 66 C86.38545591 76.34806677 94.69143448 87.78570664 103 99 C103.75925781 100.00675781 104.51851562 101.01351562 105.30078125 102.05078125 C106.02652344 103.02402344 106.75226563 103.99726563 107.5 105 C108.1496875 105.86625 108.799375 106.7325 109.46875 107.625 C110.89307812 109.83416198 111.57202106 111.43212638 112 114 C107.82554092 110.2050372 104.72589201 105.6731956 101.4375 101.125 C93.04646837 89.64253566 84.61114411 78.4232246 74.80078125 68.109375 C73 66 73 66 73 64 C71.515 63.505 71.515 63.505 70 63 C68.53613281 61.51928711 68.53613281 61.51928711 66.953125 59.58984375 C62.4768769 54.31862714 57.63604622 49.45207151 52.75 44.5625 C51.43322266 43.22735352 51.43322266 43.22735352 50.08984375 41.86523438 C44.04102738 35.80313364 37.69117866 30.33681798 31 25 C29.16390858 23.44074195 27.32995036 21.87896067 25.5 20.3125 C19.2717852 15.08936748 12.73525416 10.31470103 6.14648438 5.55786133 C5.35048828 4.98060303 4.55449219 4.40334473 3.734375 3.80859375 C3.01475586 3.29095459 2.29513672 2.77331543 1.55371094 2.23999023 C1.04098633 1.83079346 0.52826172 1.42159668 0 1 C0 0.67 0 0.34 0 0 Z " fill="#E0BFF8" transform="translate(758,153)"/>
<path d="M0 0 C2.8515625 0.35546875 2.8515625 0.35546875 6.625 1.1875 C13.88014435 2.69047298 21.14906782 3.76652114 28.5 4.6875 C30.02101318 4.88412231 30.02101318 4.88412231 31.57275391 5.0847168 C35.84748296 5.61138543 40.03323345 6.07371943 44.34375 6.01953125 C48 6 48 6 50.54907227 6.48608398 C55.32890251 7.19790165 60.04453834 7.18215245 64.87109375 7.203125 C65.93394089 7.21000336 66.99678802 7.21688171 68.09184265 7.22396851 C71.54042972 7.24118533 74.98887212 7.24743419 78.4375 7.25 C79.60706238 7.25167175 80.77662476 7.25334351 81.98162842 7.25506592 C113.68157798 7.30979908 113.68157798 7.30979908 144.87451172 2.18505859 C147.4908202 1.95726606 148.78837139 2.65370949 151 4 C143.34038512 5.91076786 135.72398519 6.79147183 127.875 7.5625 C126.658125 7.68818359 125.44125 7.81386719 124.1875 7.94335938 C109.52738964 9.42331766 94.97640312 10.20815119 80.25 10.1875 C79.04345261 10.18659363 79.04345261 10.18659363 77.81253052 10.18566895 C51.34279083 10.13212943 23.65242937 9.01604906 -2 2 C-1.34 1.34 -0.68 0.68 0 0 Z " fill="#541E9C" transform="translate(431,914)"/>
<path d="M0 0 C1 2 1 2 0.375 4.3125 C-0.93130642 6.86573528 -2.2949763 8.4659358 -4.3671875 10.4140625 C-6.56599336 12.54974475 -8.62205629 14.79781735 -10.6875 17.0625 C-11.45449219 17.89910156 -12.22148438 18.73570312 -13.01171875 19.59765625 C-15.00931799 21.81272149 -15.00931799 21.81272149 -15.9453125 23.98046875 C-17.49973839 26.95690648 -19.77968063 28.92520889 -22.1875 31.25 C-25.41430702 34.40157059 -28.57818663 37.55922707 -31.5 41 C-37.80043462 48.35806153 -44.80707783 55.11302777 -52.17578125 61.390625 C-54.0220076 63.0194157 -55.72660855 64.7303823 -57.4375 66.5 C-59.87704953 68.98052577 -62.39860226 71.16614999 -65.16015625 73.28125 C-66.34750366 74.19487305 -66.34750366 74.19487305 -67.55883789 75.12695312 C-68.36442139 75.74505859 -69.17000488 76.36316406 -70 77 C-71.50091171 78.16549352 -73.00092889 79.33214002 -74.5 80.5 C-83.5 87.5 -83.5 87.5 -85.7265625 89.21875 C-87.32151277 90.46840176 -88.89828361 91.74144044 -90.4609375 93.03125 C-91.65589844 94.00578125 -91.65589844 94.00578125 -92.875 95 C-93.59429688 95.598125 -94.31359375 96.19625 -95.0546875 96.8125 C-96.01761719 97.4003125 -96.01761719 97.4003125 -97 98 C-97.99 97.67 -98.98 97.34 -100 97 C-99.53215088 96.64284912 -99.06430176 96.28569824 -98.58227539 95.91772461 C-94.06473279 92.46829824 -89.55003114 89.01518931 -85.03759766 85.55908203 C-83.4684377 84.35842837 -81.89684288 83.16095641 -80.32421875 81.96484375 C-65.32666945 70.46954702 -51.56026378 57.63677828 -38.1875 44.3125 C-37.29160156 43.42127441 -36.39570312 42.53004883 -35.47265625 41.61181641 C-27.84004067 33.96068888 -20.85286935 25.91045443 -14 17.5625 C-13.3920459 16.82330322 -12.7840918 16.08410645 -12.15771484 15.32250977 C-8.02100365 10.27940313 -3.9400276 5.19905898 0 0 Z " fill="#BA95E8" transform="translate(856,749)"/>
<path d="M0 0 C2.76276177 0.52268466 5.3260876 1.10869587 8 2 C8 2.66 8 3.32 8 4 C8.77923828 4.13535156 8.77923828 4.13535156 9.57421875 4.2734375 C12.90032948 5.2696639 15.79198499 6.94945136 18.8125 8.625 C24.68763729 11.82521929 30.63179215 14.77170029 36.71289062 17.55834961 C40.28658033 19.1966052 43.81401977 20.89452888 47.3125 22.6875 C56.25484386 27.35594066 56.25484386 27.35594066 66 29 C66 29.66 66 30.32 66 31 C66.57830566 31.16870605 67.15661133 31.33741211 67.75244141 31.51123047 C74.68173286 33.55842789 81.52946321 35.81494865 88.375 38.125 C90.48650465 38.83734558 92.59846549 39.54834077 94.7109375 40.2578125 C95.63181152 40.5686377 96.55268555 40.87946289 97.50146484 41.19970703 C99.65977606 41.89102462 101.79685758 42.47530938 104 43 C105.37561695 43.35962749 106.75058827 43.72173107 108.125 44.0859375 C108.9089917 44.29323486 109.6929834 44.50053223 110.50073242 44.71411133 C111.32549072 44.93220459 112.15024902 45.15029785 113 45.375 C120.31988011 47.30687781 127.64767364 49.19493784 135 51 C135 51.33 135 51.66 135 52 C103.34233687 49.64237863 70.65420441 35.92491743 42 23 C41.14841309 22.62166016 40.29682617 22.24332031 39.41943359 21.85351562 C25.79313439 15.77555874 12.89589373 8.48563749 0 1 C0 0.67 0 0.34 0 0 Z " fill="#58239E" transform="translate(293,863)"/>
<path d="M0 0 C5.51062606 -0.16185216 10.38368916 0.29363017 15.7421875 1.65234375 C16.81824753 1.91514633 16.81824753 1.91514633 17.91604614 2.18325806 C20.23887133 2.756063 22.55711188 3.34505338 24.875 3.9375 C26.07068604 4.23936722 26.07068604 4.23936722 27.29052734 4.54733276 C41.83420328 8.23363946 55.9701691 12.65747497 70 18 C70.92216309 18.34949707 71.84432617 18.69899414 72.79443359 19.05908203 C82.62371761 22.81593506 92.25209232 26.9032279 101.73828125 31.45703125 C104.10107489 32.57475998 106.4385486 33.59282504 108.85546875 34.57421875 C112 36 112 36 113 38 C113.66 38.165 114.32 38.33 115 38.5 C115.66 38.665 116.32 38.83 117 39 C117.33 39.66 117.66 40.32 118 41 C113.5222136 40.38939276 109.94323495 38.58350869 106 36.5 C84.28906857 25.36638441 61.34375585 16.98644564 38 10 C37.25395508 9.77570313 36.50791016 9.55140625 35.73925781 9.3203125 C23.95821649 5.8143571 12.07836221 3.25681298 0 1 C0 0.67 0 0.34 0 0 Z " fill="#E6C4FA" transform="translate(594,84)"/>
<path d="M0 0 C2.78266023 1.96692148 3.03991604 3.19765909 3.73046875 6.6171875 C3.89609747 8.03496937 4.04800054 9.4544092 4.1875 10.875 C4.26935547 11.58269531 4.35121094 12.29039062 4.43554688 13.01953125 C4.84254001 16.69272983 5.09418898 20.30489399 5 24 C5.66 24 6.32 24 7 24 C7.22037447 31.48851076 7.41489318 38.97738404 7.59204102 46.46704102 C7.65519523 49.01113845 7.72411539 51.55509991 7.79907227 54.09887695 C7.90622547 57.77013278 7.99215089 61.44138905 8.07421875 65.11328125 C8.11157639 66.23769119 8.14893402 67.36210114 8.18742371 68.52058411 C8.3078972 74.94840355 7.68088672 80.40489801 5.72077942 86.54020691 C4.61009103 90.33063649 4.32201792 94.0713814 4 98 C3.34 97.67 2.68 97.34 2 97 C2.44303878 91.05395322 2.97688506 85.15139107 3.78686523 79.24291992 C6.95208015 54.92207016 5.56347079 30.14503294 0.38037109 6.21777344 C0 4 0 4 0 0 Z " fill="#501C83" transform="translate(749,421)"/>
<path d="M0 0 C6.84762632 0.63976796 13.40701299 1.86777161 20.125 3.3125 C30.01580116 5.35923327 39.92580792 6.95216514 49.9375 8.25 C51.16678223 8.41282471 52.39606445 8.57564941 53.66259766 8.7434082 C70.75371554 10.88008162 87.9232097 11.19799225 105.125 11.5625 C107.06641233 11.60584814 109.00781865 11.64946657 110.94921875 11.69335938 C115.63274933 11.79867463 120.31634493 11.90038184 125 12 C125 12.33 125 12.66 125 13 C109.26465622 13.74897859 93.62142561 14.1561476 77.875 13.625 C76.8681868 13.59286911 76.8681868 13.59286911 75.84103394 13.56008911 C64.41549308 13.18205297 64.41549308 13.18205297 60 12 C59.113125 12 58.22625 12 57.3125 12 C56.549375 12 55.78625 12 55 12 C54.505 11.505 54.505 11.505 54 11 C52.07093423 10.67675523 50.13226489 10.41055823 48.19140625 10.16796875 C46.97727051 10.01118652 45.76313477 9.8544043 44.51220703 9.69287109 C43.20880371 9.52609863 41.90540039 9.35932617 40.5625 9.1875 C26.76566105 7.37376157 13.36502431 4.90244896 0 1 C0 0.67 0 0.34 0 0 Z " fill="#BE99E9" transform="translate(409,912)"/>
<path d="M0 0 C1.31639047 3.94917141 0.33943674 5.26732456 -1.24609375 9.07421875 C-1.74963379 10.29125488 -2.25317383 11.50829102 -2.77197266 12.76220703 C-3.32638363 14.07096227 -3.88157517 15.37938709 -4.4375 16.6875 C-4.99794981 18.02194507 -5.55833375 19.3564178 -6.11865234 20.69091797 C-9.76385348 29.32220237 -13.58865122 37.81608401 -17.99169922 46.08935547 C-19.1029456 48.19507319 -20.17914064 50.31684846 -21.25390625 52.44140625 C-25.81974018 61.3911092 -30.73119832 70.06894486 -36 78.625 C-36.56420654 79.54434326 -37.12841309 80.46368652 -37.7097168 81.41088867 C-38.23863525 82.25756104 -38.76755371 83.1042334 -39.3125 83.9765625 C-39.78300781 84.73018066 -40.25351562 85.48379883 -40.73828125 86.26025391 C-42 88 -42 88 -44 89 C-42.8905928 85.51329166 -41.73662334 82.22515763 -40 79 C-39.34 79 -38.68 79 -38 79 C-38 77.68 -38 76.36 -38 75 C-37.01 74.01 -37.01 74.01 -36 73 C-35.67 72.01 -35.34 71.02 -35 70 C-34.01398517 68.98620773 -33.01290967 67.98692147 -32 67 C-30.86894044 65.33525316 -30.86894044 65.33525316 -29.87890625 63.5234375 C-29.50241943 62.85634766 -29.12593262 62.18925781 -28.73803711 61.50195312 C-28.15614624 60.44911133 -28.15614624 60.44911133 -27.5625 59.375 C-27.16361572 58.66021484 -26.76473145 57.94542969 -26.35375977 57.20898438 C-23.61279341 52.24565847 -21.15564706 47.24853197 -19 42 C-18.34 42 -17.68 42 -17 42 C-16.896875 41.3090625 -16.79375 40.618125 -16.6875 39.90625 C-15.60876899 35.34615984 -13.41552504 31.35502267 -11.375 27.15625 C-10.16313637 24.37447213 -9.4455328 21.98506977 -9 19 C-8.34 19 -7.68 19 -7 19 C-6.81824219 18.07767578 -6.81824219 18.07767578 -6.6328125 17.13671875 C-6.46523438 16.32847656 -6.29765625 15.52023437 -6.125 14.6875 C-5.88136719 13.48673828 -5.88136719 13.48673828 -5.6328125 12.26171875 C-5 10 -5 10 -3 7 C-2.61500109 5.34450469 -2.27206865 3.6777567 -2 2 C-1.34 2 -0.68 2 0 2 C0 1.34 0 0.68 0 0 Z " fill="#612AA8" transform="translate(912,642)"/>
<path d="M0 0 C4.07275086 -0.17926826 7.69393417 0.06006641 11.69140625 0.875 C36.80188679 5.81303508 62.53505132 4.36685997 88 4 C88.495 4.99 88.495 4.99 89 6 C24.36140302 9.73556391 24.36140302 9.73556391 1 2 C0.67 1.34 0.34 0.68 0 0 Z " fill="#3C1377" transform="translate(455,695)"/>
<path d="M0 0 C0.33 0 0.66 0 1 0 C1.6503259 4.1243045 2.29442956 8.2495585 2.9375 12.375 C3.11990234 13.53128906 3.30230469 14.68757813 3.49023438 15.87890625 C4.42315841 21.8835446 5.26083063 27.86614584 5.80493164 33.91918945 C6.1632614 37.74152303 6.65741295 41.53392896 7.53125 45.2734375 C8.08734548 48.50805957 8.05688863 51.53073716 8 54.8125 C7.94127768 60.21562075 8.11695205 65.54290807 8.5 70.9375 C8.88155681 76.56684537 9.13610666 82.1701538 9.1875 87.8125 C9.20167969 89.11832031 9.21585938 90.42414063 9.23046875 91.76953125 C9 95 9 95 7 98 C6.95512451 96.69256836 6.91024902 95.38513672 6.86401367 94.03808594 C5.8421993 64.82219525 4.38215116 36.03677462 -0.17358398 7.12426758 C-0.48796913 5.08847468 -0.75006749 3.04470646 -1 1 C-0.67 0.67 -0.34 0.34 0 0 Z " fill="#D4B1F0" transform="translate(932,417)"/>
<path d="M0 0 C-1 3 -1 3 -2.7578125 4.140625 C-3.53898437 4.50671875 -4.32015625 4.8728125 -5.125 5.25 C-6.01445312 5.67152344 -6.90390625 6.09304688 -7.8203125 6.52734375 C-8.86960937 7.01332031 -9.91890625 7.49929688 -11 8 C-12.3104813 8.62507612 -13.62034545 9.25144726 -14.9296875 9.87890625 C-16.28612135 10.5241464 -17.64289125 11.16868056 -19 11.8125 C-19.65887207 12.12670898 -20.31774414 12.44091797 -20.99658203 12.76464844 C-25.76872269 15 -25.76872269 15 -28 15 C-28.33 15.66 -28.66 16.32 -29 17 C-30.92695121 17.76413583 -32.85813262 18.51992903 -34.8125 19.2109375 C-36.77855932 19.92012319 -38.70565134 20.73519454 -40.625 21.5625 C-43.71899657 22.88031335 -46.80527563 23.95824205 -50 25 C-51.2065625 25.556875 -51.2065625 25.556875 -52.4375 26.125 C-55.70133383 27.23947984 -58.5766766 27.13424798 -62 27 C-59.73077274 24.73077274 -58.11943755 24.16447699 -55.1171875 23.08203125 C-54.12267578 22.71843506 -53.12816406 22.35483887 -52.10351562 21.98022461 C-51.03810547 21.59487549 -49.97269531 21.20952637 -48.875 20.8125 C-33.40094257 15.10592598 -18.67793461 8.50368228 -4 1 C-2 0 -2 0 0 0 Z " fill="#411A7D" transform="translate(422,696)"/>
<path d="M0 0 C0.99 0.99 0.99 0.99 2 2 C1.40388916 2.24008789 0.80777832 2.48017578 0.19360352 2.72753906 C-25.70524619 13.2103481 -52.46066139 24.50376937 -75.58203125 40.40625 C-78 42 -78 42 -80 42 C-80 41.34 -80 40.68 -80 40 C-77.5706957 38.40096426 -75.14969128 36.93534494 -72.625 35.5 C-71.86493652 35.06147705 -71.10487305 34.6229541 -70.32177734 34.17114258 C-67.88639873 32.77141084 -65.4439879 31.3846369 -63 30 C-62.20980469 29.54931152 -61.41960937 29.09862305 -60.60546875 28.63427734 C-36.66234756 15 -36.66234756 15 -32 15 C-32 14.34 -32 13.68 -32 13 C-31.443125 12.82984375 -30.88625 12.6596875 -30.3125 12.484375 C-26.52407016 11.28129255 -22.89702854 10.04160753 -19.375 8.1875 C-13.16193951 4.92881317 -6.526534 2.54942734 0 0 Z " fill="#E8C4F8" transform="translate(358,102)"/>
<path d="M0 0 C0.66 0.99 1.32 1.98 2 3 C-0.32398984 12.42120434 -5.57882861 21.42208134 -10 30 C-10.73150223 31.49886241 -11.46112963 32.99864391 -12.1875 34.5 C-14.21794304 38.42085552 -16.24970554 42.34182631 -19.484375 45.40625 C-21.20020112 47.21052076 -22.12098502 48.9441409 -23.1875 51.1875 C-23.70376953 52.26064453 -23.70376953 52.26064453 -24.23046875 53.35546875 C-24.48441406 53.89816406 -24.73835937 54.44085937 -25 55 C-25.6796875 53.29296875 -25.6796875 53.29296875 -26 51 C-24.8828125 48.80078125 -24.8828125 48.80078125 -23.125 46.3125 C-14.89881889 33.98961516 -8.72966418 20.62650704 -3 7 C-2.00300087 4.66536979 -1.00145266 2.33272506 0 0 Z " fill="#502187" transform="translate(743,544)"/>
<path d="M0 0 C0.33 0 0.66 0 1 0 C0.54871813 6.31794618 -0.99266015 10.49439978 -4 16 C-5.04809502 18.08010674 -6.08941455 20.16363714 -7.125 22.25 C-12.0625 32.125 -12.0625 32.125 -17 42 C-17.3403125 42.721875 -17.680625 43.44375 -18.03125 44.1875 C-19 46 -19 46 -21 48 C-21.30421875 48.76957031 -21.6084375 49.53914062 -21.921875 50.33203125 C-23.05978106 53.14793647 -24.45628227 55.2433576 -26.25 57.6875 C-29.35820272 62.00913467 -32.10512027 66.44214272 -34.73828125 71.06640625 C-36 73 -36 73 -38 74 C-36.48207772 69.78618452 -34.34587932 66.10363111 -32 62.3125 C-19.79247159 42.24639078 -9.48803283 21.46733685 0 0 Z " fill="#C6A1EE" transform="translate(907,658)"/>
<path d="M0 0 C22.77 0 45.54 0 69 0 C66.33333333 1.33333333 63.66666667 2.66666667 61 4 C60.505 3.505 60.505 3.505 60 3 C58.37534687 2.92387709 56.74740059 2.91704152 55.12109375 2.9375 C53.5429187 2.95006836 53.5429187 2.95006836 51.93286133 2.96289062 C50.20265747 2.98125977 50.20265747 2.98125977 48.4375 3 C37.38267662 3.06635458 26.35994185 2.87123266 15.3125 2.5 C14.59488495 2.47599121 13.8772699 2.45198242 13.13790894 2.42724609 C9.09172274 2.29066793 5.04578282 2.14802125 1 2 C0.67 1.34 0.34 0.68 0 0 Z " fill="#532688" transform="translate(462,482)"/>
<path d="M0 0 C-0.33 0.99 -0.66 1.98 -1 3 C-1.58265625 3.08636719 -2.1653125 3.17273438 -2.765625 3.26171875 C-8.84315137 4.30330739 -14.07507858 6.16829992 -19.7109375 8.63671875 C-24.53889104 10.63785389 -29.48082852 12.19966442 -34.45703125 13.7890625 C-38.07946142 15.02715881 -41.50015966 16.45336397 -45 18 C-46.11375 18.474375 -47.2275 18.94875 -48.375 19.4375 C-50.33683921 20.28312035 -52.2952598 21.13806369 -54.23046875 22.04296875 C-58.50231087 24.02504625 -62.25517236 25.51335101 -67 26 C-65.407818 22.815636 -62.15538757 22.25012177 -59 21 C-58.0925 20.608125 -57.185 20.21625 -56.25 19.8125 C-54 19 -54 19 -51 19 C-51 18.34 -51 17.68 -51 17 C-44.27939581 14.10820156 -37.4569453 11.81836423 -30.44726562 9.7512207 C-27.24130783 8.78779449 -24.80979034 7.87319356 -22 6 C-16.71250071 4.01605018 -11.69686615 2.55024741 -6 3 C-6 2.34 -6 1.68 -6 1 C-3.92446352 0.4465236 -2.15634036 0 0 0 Z " fill="#AF6CEB" transform="translate(406,130)"/>
<path d="M0 0 C0 3 0 3 -1.25 4.51464844 C-2.11625 5.30403809 -2.11625 5.30403809 -3 6.109375 C-3.96099609 6.99496094 -3.96099609 6.99496094 -4.94140625 7.8984375 C-5.62074219 8.50945312 -6.30007812 9.12046875 -7 9.75 C-7.64839844 10.34554687 -8.29679687 10.94109375 -8.96484375 11.5546875 C-12.18007256 14.49614435 -15.43793605 17.37540515 -18.75 20.20703125 C-24.43864309 25.1651123 -29.68919128 30.58291634 -35 35.9375 C-36.07137887 37.01390654 -37.14299182 38.09008014 -38.21484375 39.16601562 C-40.81259638 41.77466745 -43.40717962 44.38644471 -46 47 C-46.33 46.34 -46.66 45.68 -47 45 C-41.68933604 38.74131488 -36.0551226 32.86268113 -30.25 27.0625 C-29.36401123 26.1765918 -28.47802246 25.29068359 -27.56518555 24.37792969 C-22.35979833 19.21788141 -17.133821 14.33033008 -11.34375 9.83203125 C-7.39647639 6.74657905 -3.711055 3.36285725 0 0 Z " fill="#8E51C9" transform="translate(240,171)"/>
<path d="M0 0 C0.99 0 1.98 0 3 0 C3.26554688 0.84304688 3.53109375 1.68609375 3.8046875 2.5546875 C4.15789063 3.65039062 4.51109375 4.74609375 4.875 5.875 C5.22304688 6.96554687 5.57109375 8.05609375 5.9296875 9.1796875 C6.81175231 12.08522723 6.81175231 12.08522723 9 14 C9.44359789 16.0814978 9.8834482 18.16386251 10.3046875 20.25 C11.10096146 23.39930824 12.22748928 26.29834156 13.4375 29.3125 C15.87545067 35.45039933 17.5354857 41.57087433 19 48 C19.37125697 49.48011057 19.74578895 50.95940731 20.125 52.4375 C20.62410822 54.46958346 21.09926842 56.50875064 21.5 58.5625 C22.15640149 61.76245727 23.07867253 64.86748661 24 68 C22.515 67.505 22.515 67.505 21 67 C20.06445312 64.56665039 20.06445312 64.56665039 19.28125 61.34765625 C18.84232422 59.59291992 18.84232422 59.59291992 18.39453125 57.80273438 C18.09933594 56.56845703 17.80414062 55.33417969 17.5 54.0625 C16.90802446 51.65711469 16.31430058 49.25215891 15.71875 46.84765625 C15.43 45.67992676 15.14125 44.51219727 14.84375 43.30908203 C13.18227216 36.79297364 11.24475808 30.42647301 8.82568359 24.15234375 C7.83923466 21.58092629 6.8973648 18.99488186 5.95703125 16.40625 C5.60576172 15.43945312 5.25449219 14.47265625 4.89257812 13.4765625 C4.35793945 12.00316406 4.35793945 12.00316406 3.8125 10.5 C3.44447266 9.48679687 3.07644531 8.47359375 2.69726562 7.4296875 C1.79780801 4.95325875 0.89872796 2.47669363 0 0 Z " fill="#D5B3F1" transform="translate(907,339)"/>
<path d="M0 0 C0.66 0.33 1.32 0.66 2 1 C0.45003963 10.75563294 -2.3038343 19.33086495 -6.0234375 28.4453125 C-7.32484468 31.84979368 -8.33496175 35.31451893 -9.3515625 38.8125 C-10.6793246 43.29169745 -12.5159849 47.04815779 -15 51 C-16.19330099 47.42009702 -15.74865917 46.70510976 -14.375 43.30078125 C-14.00109131 42.34945312 -13.62718262 41.398125 -13.24194336 40.41796875 C-12.83210205 39.39316406 -12.42226074 38.36835937 -12 37.3125 C-7.23870089 25.07317708 -3.47146793 12.65805405 0 0 Z " fill="#C6A0EA" transform="translate(924,607)"/>
<path d="M0 0 C0.33 0 0.66 0 1 0 C1.10546143 0.68400879 1.21092285 1.36801758 1.31958008 2.07275391 C5.14951927 26.90360783 5.14951927 26.90360783 12.01171875 51.015625 C13 54 13 54 13 56 C12.34 56 11.68 56 11 56 C10.01 52.7 9.02 49.4 8 46 C7.01 46 6.02 46 5 46 C5.061875 44.2365625 5.061875 44.2365625 5.125 42.4375 C5.13225792 38.34403186 4.29865281 34.89595844 3 31 C1.73323776 27.19971328 1.37124271 23.39912408 0.9375 19.4375 C0.84807129 18.63135254 0.75864258 17.82520508 0.66650391 16.99462891 C0.06505827 11.29750673 -0.1849019 5.73195884 0 0 Z " fill="#5C3197" transform="translate(262,495)"/>
<path d="M0 0 C2.8515625 0.35546875 2.8515625 0.35546875 6.625 1.1875 C13.88014435 2.69047298 21.14906782 3.76652114 28.5 4.6875 C30.02101318 4.88412231 30.02101318 4.88412231 31.57275391 5.0847168 C37.1039906 5.76619364 42.43052228 6.08080715 48 6 C50.00720923 6.28674418 52.01178687 6.60235737 54 7 C53.67 7.66 53.34 8.32 53 9 C44.14158047 9.34279017 35.62698085 8.19560757 26.87695312 6.97363281 C24.3747792 6.62496923 21.87120013 6.28830008 19.3671875 5.953125 C17.75250735 5.73247814 16.13792051 5.51114723 14.5234375 5.2890625 C13.78676849 5.19001617 13.05009949 5.09096985 12.29110718 4.98892212 C7.42342202 4.30161115 2.75248737 3.2602357 -2 2 C-1.34 1.34 -0.68 0.68 0 0 Z " fill="#5924A2" transform="translate(431,914)"/>
<path d="M0 0 C0.99 0.33 1.98 0.66 3 1 C2.57589844 1.4125 2.15179688 1.825 1.71484375 2.25 C-2.01628035 5.92372219 -5.53929541 9.70276951 -8.95703125 13.66796875 C-13.21355168 18.52675019 -17.62245795 23.25040646 -22 28 C-22.33 27.01 -22.66 26.02 -23 25 C-22.401875 24.608125 -21.80375 24.21625 -21.1875 23.8125 C-18.88592334 22.12100855 -18.88592334 22.12100855 -17.64453125 19.63671875 C-15.38748346 16.01793666 -12.41656225 13.75769146 -9.15625 11.0625 C-6.87677045 8.88212825 -5.54663176 6.73223421 -4 4 C-2.70420353 2.63015802 -1.38007251 1.2848951 0 0 Z M-24 28 C-23.34 28.66 -22.68 29.32 -22 30 C-24.31 32.31 -26.62 34.62 -29 37 C-29 32.61031544 -26.87194899 31.23094261 -24 28 Z " fill="#A35EE3" transform="translate(220,213)"/>
<path d="M0 0 C0.33 0 0.66 0 1 0 C1.16971771 5.17350392 1.33001382 10.34719021 1.48217773 15.52124023 C1.53502706 17.27554876 1.59029901 19.02978626 1.64819336 20.78393555 C1.95085394 30.0032401 2.16283918 39.07023616 1.23413086 48.2668457 C0.98372488 51.18998951 0.96349698 54.06759099 1 57 C0.01 57 -0.98 57 -2 57 C-1.93941406 56.06929687 -1.87882813 55.13859375 -1.81640625 54.1796875 C-0.72662575 36.14020217 -0.43040467 18.0645407 0 0 Z " fill="#BF96E4" transform="translate(938,487)"/>
<path d="M0 0 C5.02566725 1.46712025 9.24978913 3.65024873 13.75 6.25 C14.45882324 6.65549072 15.16764648 7.06098145 15.89794922 7.47875977 C17.30500006 8.28592884 18.71048952 9.09582699 20.11425781 9.90869141 C21.66288409 10.80490574 23.21737062 11.69098642 24.7734375 12.57421875 C32.1961413 16.87741414 39.07472949 21.95073937 46 27 C42.69169813 27 41.96256713 26.55966923 39.2890625 24.796875 C38.54849609 24.31661865 37.80792969 23.8363623 37.04492188 23.34155273 C36.24634766 22.81634033 35.44777344 22.29112793 34.625 21.75 C26.50304062 16.49652296 18.22734474 11.61287505 9.76806641 6.92285156 C8.92679199 6.45202148 8.08551758 5.98119141 7.21875 5.49609375 C6.47560547 5.08544678 5.73246094 4.6747998 4.96679688 4.25170898 C3.02033234 3.01293991 1.55742372 1.69305244 0 0 Z " fill="#E3C3F9" transform="translate(712,125)"/>
<path d="M0 0 C10.86848086 5.43424043 18.36523861 17.09467908 23 28 C23 28.99 23 29.98 23 31 C22.34 31 21.68 31 21 31 C21 29.68 21 28.36 21 27 C20.34 27 19.68 27 19 27 C19 25.68 19 24.36 19 23 C18.34 23 17.68 23 17 23 C17 22.01 17 21.02 17 20 C16.34 20 15.68 20 15 20 C11 14.70588235 11 14.70588235 11 11 C10.443125 10.773125 9.88625 10.54625 9.3125 10.3125 C5.03688123 7.88579746 1.86083181 4.56749627 0 0 Z " fill="#4D2582" transform="translate(605,374)"/>
<path d="M0 0 C0.33 0 0.66 0 1 0 C1.17232763 5.55756613 0.69503735 10.14360994 -0.75 15.5625 C-0.92756836 16.23925781 -1.10513672 16.91601562 -1.28808594 17.61328125 C-1.84956762 19.74474072 -2.42449908 21.87228813 -3 24 C-3.38631744 25.45679268 -3.77174223 26.91382238 -4.15625 28.37109375 C-5.09387738 31.91685775 -6.04359046 35.45924978 -7 39 C-7.33 39 -7.66 39 -8 39 C-8.257605 29.35821295 -5.92396867 20.14961227 -2.6953125 11.109375 C-1.49823638 7.47779576 -0.75253944 3.74499041 0 0 Z " fill="#4B1F8A" transform="translate(341,646)"/>
<path d="M0 0 C0 3.56176157 -1.07807717 4.89386264 -3.390625 7.51171875 C-8.13154277 11.89591698 -14.00002519 13.46484167 -20.21484375 14.60546875 C-22.01468921 14.83540496 -22.01468921 14.83540496 -23 16 C-24.51928038 16.07179964 -26.04167482 16.08392007 -27.5625 16.0625 C-28.38878906 16.05347656 -29.21507812 16.04445313 -30.06640625 16.03515625 C-31.02353516 16.01775391 -31.02353516 16.01775391 -32 16 C-28.69409724 14.1865679 -25.36829262 13.16247253 -21.75 12.125 C-12.98953574 9.45962385 -6.69068297 6.27251529 0 0 Z " fill="#441A7B" transform="translate(566,466)"/>
<path d="M0 0 C0.66 0 1.32 0 2 0 C2.21914062 0.59425781 2.43828125 1.18851563 2.6640625 1.80078125 C5.24503829 8.54699032 8.47763612 14.7060709 12 21 C13.45013508 23.63909543 14.88365925 26.28682711 16.3125 28.9375 C16.6621582 29.57647217 17.01181641 30.21544434 17.37207031 30.8737793 C18.9830878 33.86606571 20.41733383 36.63066955 21 40 C17.42366802 35.83994487 14.81299632 31.40973544 12.1875 26.625 C11.7538916 25.83931641 11.3202832 25.05363281 10.87353516 24.24414062 C8.04912909 19.06866935 5.37700394 13.83875057 2.875 8.5 C2.58004639 7.87174316 2.28509277 7.24348633 1.98120117 6.59619141 C0 2.26446371 0 2.26446371 0 0 Z " fill="#6931AA" transform="translate(122,674)"/>
<path d="M0 0 C0 0.66 0 1.32 0 2 C-1.2684375 1.80083984 -1.2684375 1.80083984 -2.5625 1.59765625 C-8.700297 0.64211285 -14.83070189 -0.27420022 -21 -1 C-21.33 -0.01 -21.66 0.98 -22 2 C-22.33 1.34 -22.66 0.68 -23 0 C-24.1446875 0.4640625 -24.1446875 0.4640625 -25.3125 0.9375 C-27.18789677 1.67893593 -29.08684652 2.36228217 -31 3 C-29.88194445 -0.35416665 -29.52513331 -0.6524432 -26.5625 -2.25 C-18.10352081 -6.17148058 -8.50729791 -2.32415871 0 0 Z " fill="#411B76" transform="translate(454,694)"/>
<path d="M0 0 C2.78266023 1.96692148 3.03991604 3.19765909 3.73046875 6.6171875 C3.89609747 8.03496937 4.04800054 9.4544092 4.1875 10.875 C4.26935547 11.58269531 4.35121094 12.29039062 4.43554688 13.01953125 C4.84254001 16.69272983 5.09418898 20.30489399 5 24 C5.66 24 6.32 24 7 24 C7 27.63 7 31.26 7 35 C3.27283141 31.27283141 3.32922916 28.42268369 2.9375 23.4375 C2.7859666 21.80827256 2.6310399 20.17935702 2.47265625 18.55078125 C2.3967627 17.76654785 2.32086914 16.98231445 2.24267578 16.17431641 C1.85593257 12.7091906 1.15748244 9.33750156 0.3671875 5.9453125 C0 4 0 4 0 0 Z " fill="#5A2993" transform="translate(749,421)"/>
<path d="M0 0 C0.66 0.33 1.32 0.66 2 1 C1.82984375 1.76699219 1.6596875 2.53398437 1.484375 3.32421875 C-0.88539676 14.17726921 -2.95424054 25.08198962 -5 36 C-5.66 36 -6.32 36 -7 36 C-6.69241283 32.74951545 -6.37807182 29.4997183 -6.0625 26.25 C-5.97548828 25.32960938 -5.88847656 24.40921875 -5.79882812 23.4609375 C-5.71181641 22.57148438 -5.62480469 21.68203125 -5.53515625 20.765625 C-5.456604 19.94868164 -5.37805176 19.13173828 -5.29711914 18.29003906 C-5.01670988 16.12879099 -4.57555495 14.09982687 -4 12 C-3.34 12 -2.68 12 -2 12 C-1.34 8.04 -0.68 4.08 0 0 Z " fill="#DEBDF3" transform="translate(94,394)"/>
<path d="M0 0 C5.18010891 1.72670297 9.51109056 4.74635434 14.0625 7.6875 C21.28150321 12.30466714 28.54376612 16.77331253 36 21 C33 22 33 22 30.328125 20.70703125 C28.80445313 19.76923828 28.80445313 19.76923828 27.25 18.8125 C26.24453125 18.20019531 25.2390625 17.58789062 24.203125 16.95703125 C23.14609375 16.31121094 22.0890625 15.66539062 21 15 C19.86949219 14.36835937 18.73898437 13.73671875 17.57421875 13.0859375 C13.72736346 10.90102149 10.14902147 8.39707261 6.5625 5.8125 C5.92634766 5.36197266 5.29019531 4.91144531 4.63476562 4.44726562 C3.06959024 3.32592085 1.53187031 2.16643107 0 1 C0 0.67 0 0.34 0 0 Z " fill="#C19BE9" transform="translate(269,849)"/>
<path d="M0 0 C0.33 0.66 0.66 1.32 1 2 C-5.28460934 11.36230587 -11.64860901 20.43245297 -19 29 C-19.33 28.34 -19.66 27.68 -20 27 C-19.51789062 26.32453125 -19.03578125 25.6490625 -18.5390625 24.953125 C-17.90742187 24.06109375 -17.27578125 23.1690625 -16.625 22.25 C-15.99851562 21.36828125 -15.37203125 20.4865625 -14.7265625 19.578125 C-13.00515045 17.13571902 -13.00515045 17.13571902 -11.9609375 14.859375 C-10.89494346 12.79671987 -9.68732798 11.58213297 -8 10 C-6.96731379 8.84381187 -5.94658857 7.67683986 -4.9375 6.5 C-4.43089844 5.9121875 -3.92429687 5.324375 -3.40234375 4.71875 C-1.82518372 2.84200842 -1.82518372 2.84200842 0 0 Z " fill="#5D26A6" transform="translate(866,732)"/>
<path d="M0 0 C1.31196937 4.21114643 0.21475886 6.78407221 -1 11 C-1.31933878 14.7043298 -1.27044613 17.25627313 0 20.75 C4.30302829 25.59090683 10.81771402 26.35601188 17 27 C17 27.33 17 27.66 17 28 C4.93727702 28.57952584 4.93727702 28.57952584 0 25 C-3.62388071 21.13452725 -3.42786425 16.91449723 -3.3046875 11.87109375 C-2.85725154 7.65487029 -1.61845036 3.90162139 0 0 Z " fill="#52268F" transform="translate(328,700)"/>
<path d="M0 0 C0 0.33 0 0.66 0 1 C-4.64542173 2.60919838 -9.16293576 4.08487974 -14 5 C-16.71250819 5.84389144 -19.37683685 6.75410971 -22.01953125 7.796875 C-22.71433594 8.07015625 -23.40914063 8.3434375 -24.125 8.625 C-24.76695312 8.88539062 -25.40890625 9.14578125 -26.0703125 9.4140625 C-28 10 -28 10 -32 10 C-32 9.34 -32 8.68 -32 8 C-31.37351562 7.87882812 -30.74703125 7.75765625 -30.1015625 7.6328125 C-29.28429687 7.46523437 -28.46703125 7.29765625 -27.625 7.125 C-26.81289063 6.96257812 -26.00078125 6.80015625 -25.1640625 6.6328125 C-22.81326077 6.13341068 -22.81326077 6.13341068 -21 4 C-14.03280404 1.29601743 -7.48314125 -0.58691304 0 0 Z " fill="#AE6AEA" transform="translate(401,111)"/>
<path d="M0 0 C4.81250861 0.6391613 8.71426206 2.59922377 13 4.75 C13.69867187 5.08515625 14.39734375 5.4203125 15.1171875 5.765625 C19.5546927 7.97600495 22.69080551 10.30300928 26 14 C21.64064438 13.02913914 17.94798337 11.02799146 14 9 C11.50252534 7.74493817 9.00114085 6.49773609 6.5 5.25 C5.26035386 4.63033397 4.02076576 4.0105518 2.78125 3.390625 C1.8634375 2.93171875 0.945625 2.4728125 0 2 C0 1.34 0 0.68 0 0 Z " fill="#45227A" transform="translate(579,360)"/>
<path d="M0 0 C0 0.66 0 1.32 0 2 C-9.1697417 6.66789668 -9.1697417 6.66789668 -13.4375 8.375 C-17.78386378 10.3575519 -21.53401974 12.94729521 -25.44921875 15.671875 C-28 17 -28 17 -30.33203125 16.703125 C-30.88246094 16.47109375 -31.43289063 16.2390625 -32 16 C-30.35 15.67 -28.7 15.34 -27 15 C-26.67 14.01 -26.34 13.02 -26 12 C-24.328125 10.9375 -24.328125 10.9375 -22.25 10 C-19.77294765 8.84993998 -17.56428887 7.72272928 -15.25 6.25 C-13 5 -13 5 -9 5 C-8.67 4.34 -8.34 3.68 -8 3 C-7.01 3 -6.02 3 -5 3 C-5 2.34 -5 1.68 -5 1 C-2 0 -2 0 0 0 Z " fill="#AA68E6" transform="translate(339,156)"/>
<path d="M0 0 C3.21071262 3.80368207 5.76656604 7.82913737 8.25 12.125 C12.12983656 18.7281286 16.35066047 24.90645146 21 31 C20.67 31.66 20.34 32.32 20 33 C19.61328125 32.45730469 19.2265625 31.91460938 18.828125 31.35546875 C18.30734375 30.64003906 17.7865625 29.92460938 17.25 29.1875 C16.73953125 28.47980469 16.2290625 27.77210938 15.703125 27.04296875 C14.08242751 24.92023677 14.08242751 24.92023677 11.859375 23.48828125 C9.58086768 21.66451804 9.59311879 20.79613143 9 18 C7.90322066 15.9521288 6.75189155 13.93300724 5.5625 11.9375 C4.94503906 10.89464844 4.32757813 9.85179687 3.69140625 8.77734375 C2.50272576 6.82549195 1.26766736 4.90150104 0 3 C0 2.01 0 1.02 0 0 Z " fill="#CFA8EE" transform="translate(137,706)"/>
<path d="M0 0 C1.65 0 3.3 0 5 0 C4.01 0.495 4.01 0.495 3 1 C2.67 18.16 2.34 35.32 2 53 C1.67 53 1.34 53 1 53 C0.67 35.51 0.34 18.02 0 0 Z " fill="#5D209C" transform="translate(405,352)"/>
<path d="M0 0 C2.09375 0.42578125 2.09375 0.42578125 4 1 C3.36835938 1.49886719 2.73671875 1.99773437 2.0859375 2.51171875 C-5.96762441 8.97545648 -13.49616295 15.9124342 -21 23 C-21.33 22.01 -21.66 21.02 -22 20 C-20.43910974 18.58155991 -18.8762111 17.16532975 -17.3125 15.75 C-16.44238281 14.96109375 -15.57226562 14.1721875 -14.67578125 13.359375 C-12.17565027 11.15487995 -9.60687785 9.07576521 -7 7 C-5.06454685 5.12147194 -3.21951584 3.2652483 -1.5 1.1875 C-1.005 0.795625 -0.51 0.40375 0 0 Z " fill="#E6C5F8" transform="translate(233,174)"/>
<path d="M0 0 C0 0.66 0 1.32 0 2 C-3.30321824 3.00430388 -6.24640007 3.07350814 -9.6875 3 C-11.45793582 2.96248083 -13.22978561 2.95318441 -15 3 C-15.33 3.33 -15.66 3.66 -16 4 C-18.23074644 4.07239745 -20.44492191 3.99649793 -22.67578125 3.9375 C-24.94194917 3.99843897 -26.83164585 4.36487567 -29 5 C-29 4.34 -29 3.68 -29 3 C-28.34 3 -27.68 3 -27 3 C-26.67 2.34 -26.34 1.68 -26 1 C-24.7315625 1.309375 -24.7315625 1.309375 -23.4375 1.625 C-20.07947747 1.99132973 -18.33742452 1.53442026 -15.2109375 0.48046875 C-10.25859772 -0.59574643 -5.04117764 -0.13645293 0 0 Z " fill="#AD68EA" transform="translate(482,96)"/>
<path d="M0 0 C0.33 0 0.66 0 1 0 C1.55460786 8.04181398 0.0704026 15.52423715 -3 23 C-3.99 23.33 -4.98 23.66 -6 24 C-4.56933303 15.8301386 -2.35862583 7.94605012 0 0 Z " fill="#522387" transform="translate(750,519)"/>
<path d="M0 0 C-2.77813246 2.77813246 -6.12038092 3.6463183 -9.75 4.9375 C-14.67902269 6.702379 -19.32173468 8.62656921 -24 11 C-26.875 11.6875 -26.875 11.6875 -29 12 C-29 11.34 -29 10.68 -29 10 C-23.46194749 7.47387079 -17.87743761 5.0692448 -12.25 2.75 C-11.61247803 2.47978027 -10.97495605 2.20956055 -10.31811523 1.93115234 C-6.74400487 0.4760557 -3.8642269 -0.32447707 0 0 Z " fill="#AC68E8" transform="translate(369,121)"/>
<path d="M0 0 C7.75 0.875 7.75 0.875 10 2 C10 2.66 10 3.32 10 4 C10.72445312 4.18175781 11.44890625 4.36351562 12.1953125 4.55078125 C17.46799057 5.92167755 22.25483705 7.30679941 27 10 C27 10.66 27 11.32 27 12 C28.32 12 29.64 12 31 12 C30.67 12.99 30.34 13.98 30 15 C30 14.34 30 13.68 30 13 C29.05125 12.87625 28.1025 12.7525 27.125 12.625 C24 12 24 12 22 10 C20.33339255 9.53334992 18.66577403 9.069872 16.9921875 8.62890625 C14.15856188 7.73436953 11.62884595 6.39043334 9 5.01953125 C6.06198566 3.52183253 3.04326661 2.26802775 0 1 C0 0.67 0 0.34 0 0 Z " fill="#AF69ED" transform="translate(668,127)"/>
<path d="M0 0 C5.80200549 -0.18893912 11.22272887 0.53522495 16.9375 1.5 C17.81212891 1.64308594 18.68675781 1.78617188 19.58789062 1.93359375 C21.72607717 2.28411613 23.86315849 2.64136926 26 3 C25.67 3.66 25.34 4.32 25 5 C19.1473992 5.30803162 13.74706857 4.74486088 8 3.625 C6.9934436 3.43587036 6.9934436 3.43587036 5.96655273 3.24291992 C4.29492542 2.89933503 2.64419257 2.4571862 1 2 C0.67 1.34 0.34 0.68 0 0 Z " fill="#472082" transform="translate(455,695)"/>
<path d="M0 0 C1.57759366 2.92963544 2.58149544 5.7448983 3.4375 8.95703125 C3.69273438 9.90513672 3.94796875 10.85324219 4.2109375 11.83007812 C4.47132812 12.81427734 4.73171875 13.79847656 5 14.8125 C5.52048873 16.75660271 6.04131465 18.70061518 6.5625 20.64453125 C6.92988281 22.0205249 6.92988281 22.0205249 7.3046875 23.42431641 C8.16915148 26.62659694 9.07588672 29.8144749 10 33 C9.01 33 8.02 33 7 33 C6.73574219 31.91332031 6.47148438 30.82664062 6.19921875 29.70703125 C5.34624026 26.28984733 4.41939257 22.89967739 3.45703125 19.51171875 C3.18826172 18.55845703 2.91949219 17.60519531 2.64257812 16.62304688 C2.08320881 14.64485376 1.5179786 12.66830969 0.94726562 10.69335938 C0.68236328 9.74654297 0.41746094 8.79972656 0.14453125 7.82421875 C-0.09934326 6.96916748 -0.34321777 6.11411621 -0.59448242 5.2331543 C-1 3 -1 3 0 0 Z " fill="#D4B1F2" transform="translate(95,599)"/>
<path d="M0 0 C0 3.66709667 -0.68509185 4.09941269 -3.140625 6.6875 C-3.79933594 7.38617187 -4.45804688 8.08484375 -5.13671875 8.8046875 C-5.83410156 9.52914062 -6.53148437 10.25359375 -7.25 11 C-7.93191406 11.72445312 -8.61382813 12.44890625 -9.31640625 13.1953125 C-12.39321699 16.43343176 -15.36061667 19.39040357 -19 22 C-19 21.01 -19 20.02 -19 19 C-18.34 19 -17.68 19 -17 19 C-16.938125 18.401875 -16.87625 17.80375 -16.8125 17.1875 C-15.67717105 14.13084514 -13.78847225 13.53365974 -11 12 C-10.67 11.34 -10.34 10.68 -10 10 C-9.34 10 -8.68 10 -8 10 C-8 9.01 -8 8.02 -8 7 C-6.25 5.17578125 -6.25 5.17578125 -4 3.3125 C-3.2575 2.68988281 -2.515 2.06726563 -1.75 1.42578125 C-0.88375 0.72001953 -0.88375 0.72001953 0 0 Z " fill="#5925A7" transform="translate(835,773)"/>
<path d="M0 0 C0.66 0.66 1.32 1.32 2 2 C-0.03849601 4.06571628 -2.0806475 6.12759264 -4.125 8.1875 C-4.69476562 8.76564453 -5.26453125 9.34378906 -5.8515625 9.93945312 C-9.41236101 13.52048345 -13.06960061 16.82820353 -17 20 C-17.66 19.67 -18.32 19.34 -19 19 C-18.21625 18.236875 -17.4325 17.47375 -16.625 16.6875 C-13.92742283 14.09108195 -13.92742283 14.09108195 -12 11 C-11.236875 10.54625 -10.47375 10.0925 -9.6875 9.625 C-5.5432905 7.1191989 -2.67373598 4.01060398 0 0 Z " fill="#5723A0" transform="translate(810,798)"/>
<path d="M0 0 C0.66 0 1.32 0 2 0 C3.33619621 1.65770921 4.59462139 3.37852016 5.8125 5.125 C8.10975852 8.37631124 10.38594558 11.55895896 13 14.5625 C15 17 15 17 15 19 C15.99 19.33 16.98 19.66 18 20 C18.6875 22.0625 18.6875 22.0625 19 24 C13.98933317 20.1687555 10.40056555 15.95214318 6.6875 10.875 C5.8821582 9.80185547 5.8821582 9.80185547 5.06054688 8.70703125 C1.13818994 3.41456981 1.13818994 3.41456981 0 0 Z " fill="#6630A6" transform="translate(162,743)"/>
<path d="M0 0 C0.99 0.66 1.98 1.32 3 2 C1.03493188 4.42743709 -0.40937992 5.16678441 -3.375 6.375 C-7.18530013 8.08306557 -9.1251342 10.04527681 -12 13 C-12.99 13 -13.98 13 -15 13 C-15 12.01 -15 11.02 -15 10 C-12.7133169 8.31818146 -10.48436727 6.83423975 -8.0625 5.375 C-3.80219286 2.97540598 -3.80219286 2.97540598 0 0 Z " fill="#482080" transform="translate(660,652)"/>
<path d="M0 0 C0.66 0.33 1.32 0.66 2 1 C-0.68953782 4.20977688 -4.17877564 5.77586349 -7.875 7.5625 C-8.79345703 8.01786133 -8.79345703 8.01786133 -9.73046875 8.48242188 C-13.10168598 10.13915497 -16.49126214 11.65920854 -20 13 C-18.61028989 8.83086967 -16.51558555 8.34364217 -12.6875 6.3125 C-10.96080078 5.37857422 -10.96080078 5.37857422 -9.19921875 4.42578125 C-6 3 -6 3 -2 3 C-2 2.34 -2 1.68 -2 1 C-1.34 0.67 -0.68 0.34 0 0 Z " fill="#A965E8" transform="translate(316,143)"/>
<path d="M0 0 C0.66 0.66 1.32 1.32 2 2 C1.59007813 3.15757812 1.18015625 4.31515625 0.7578125 5.5078125 C0.21351344 7.04686502 -0.33075582 8.58592808 -0.875 10.125 C-1.27912109 11.26582031 -1.27912109 11.26582031 -1.69140625 12.4296875 C-3.16791649 16.60713111 -4.61494964 20.79106057 -6 25 C-6.66 24.67 -7.32 24.34 -8 24 C-7.80664062 23.38253906 -7.61328125 22.76507813 -7.4140625 22.12890625 C-5.84336733 17.02025908 -4.4975779 11.97258883 -3.52734375 6.71484375 C-3.35332031 6.14894531 -3.17929688 5.58304687 -3 5 C-2.34 4.67 -1.68 4.34 -1 4 C-0.34786708 1.97536745 -0.34786708 1.97536745 0 0 Z " fill="#DCB7F2" transform="translate(110,345)"/>
<path d="M0 0 C0.99 0 1.98 0 3 0 C2.67 0.99 2.34 1.98 2 3 C-0.54046458 3.50688605 -3.08208876 4.00566874 -5.625 4.5 C-6.33785156 4.64308594 -7.05070312 4.78617187 -7.78515625 4.93359375 C-11.92144935 5.73049426 -15.76433679 6.16034056 -20 6 C-19.67 5.34 -19.34 4.68 -19 4 C-16.7421875 3.40234375 -16.7421875 3.40234375 -13.875 2.9375 C-12.885 2.7725 -11.895 2.6075 -10.875 2.4375 C-8.54364005 2.08272783 -6.21238324 1.7491511 -3.875 1.4375 C-1.10970289 1.30726306 -1.10970289 1.30726306 0 0 Z " fill="#AD6AE9" transform="translate(444,121)"/>
<path d="M0 0 C0.66 0.99 1.32 1.98 2 3 C1.2421875 5.85546875 1.2421875 5.85546875 -0.125 9.1875 C-0.59550781 10.33992187 -1.06601562 11.49234375 -1.55078125 12.6796875 C-3.23510319 16.53864613 -5.03023099 20.2793252 -7 24 C-8 21 -8 21 -7.29296875 19.2734375 C-6.92816406 18.64695312 -6.56335938 18.02046875 -6.1875 17.375 C-4.19111533 13.6566478 -3.22220198 10.21983979 -2.4921875 6.078125 C-1.96006345 3.831379 -1.10178104 2.02144951 0 0 Z " fill="#55209E" transform="translate(743,544)"/>
<path d="M0 0 C3.05105324 3.60154908 4.72941139 7.57808261 6.5625 11.875 C7.01786133 12.91720703 7.01786133 12.91720703 7.48242188 13.98046875 C9.19101777 17.93369062 10.7044008 21.88760055 12 26 C11.34 26 10.68 26 10 26 C9.59890015 25.09906616 9.59890015 25.09906616 9.18969727 24.17993164 C7.98299972 21.47305806 6.77279859 18.76776528 5.5625 16.0625 C5.14162109 15.11697266 4.72074219 14.17144531 4.28710938 13.19726562 C3.68286133 11.84858398 3.68286133 11.84858398 3.06640625 10.47265625 C2.69459229 9.64000244 2.32277832 8.80734863 1.93969727 7.94946289 C1.15269891 6.04272188 1.15269891 6.04272188 0 5 C-0.04063832 3.33382885 -0.042721 1.66611905 0 0 Z " fill="#491F82" transform="translate(274,551)"/>
<path d="M0 0 C4 4.625 4 4.625 4 8 C4.66 8 5.32 8 6 8 C7.96838018 10.95257027 8.39061574 12.60485915 9 16 C9.33 16.66 9.66 17.32 10 18 C9.34 18.66 8.68 19.32 8 20 C6.65722268 17.2336466 5.32744772 14.46123789 4 11.6875 C3.42765625 10.50897461 3.42765625 10.50897461 2.84375 9.30664062 C2.4828125 8.54931641 2.121875 7.79199219 1.75 7.01171875 C1.41484375 6.31522217 1.0796875 5.61872559 0.734375 4.90112305 C0 3 0 3 0 0 Z " fill="#6D3AA3" transform="translate(732,376)"/>
<path d="M0 0 C0.5775 0.7425 1.155 1.485 1.75 2.25 C3.88643074 4.98156442 3.88643074 4.98156442 6.1875 7.0625 C8.18930566 9.20236123 8.42316514 10.19823067 9 13 C9.96887581 15.01526169 10.9641321 17.01833966 12 19 C11.34 19.33 10.68 19.66 10 20 C6.30657182 13.68174787 2.61548026 7.36324525 -1 1 C-0.67 0.67 -0.34 0.34 0 0 Z " fill="#D9BAF3" transform="translate(872,269)"/>
<path d="M0 0 C-5.62870746 1.9635026 -10.87763631 3.06196933 -16.8125 3.5625 C-17.78832031 3.64628906 -18.76414062 3.73007813 -19.76953125 3.81640625 C-20.50558594 3.87699219 -21.24164063 3.93757813 -22 4 C-22 3.34 -22 2.68 -22 2 C-3.92307692 -1.96153846 -3.92307692 -1.96153846 0 0 Z " fill="#B06EEA" transform="translate(443,102)"/>
<path d="M0 0 C0.64428711 1.79785156 0.64428711 1.79785156 1 4 C-0.73852561 6.43570086 -2.43872727 8.55062492 -4.4375 10.75 C-4.96666016 11.35199219 -5.49582031 11.95398438 -6.04101562 12.57421875 C-7.34943866 14.05945571 -8.67329421 15.53107134 -10 17 C-10 13.71752569 -9.66923327 13.17433033 -7.8125 10.64453125 C-7.13574219 9.71157227 -7.13574219 9.71157227 -6.4453125 8.75976562 C-5.96835937 8.11716797 -5.49140625 7.47457031 -5 6.8125 C-4.52304687 6.15830078 -4.04609375 5.50410156 -3.5546875 4.83007812 C-2.37610725 3.21542318 -1.18886818 1.60709503 0 0 Z " fill="#C7A6F1" transform="translate(868,732)"/>
<path d="M0 0 C0.33 0.66 0.66 1.32 1 2 C0.25 4.0625 0.25 4.0625 -1 6 C-1.99 6.33 -2.98 6.66 -4 7 C-3.39816251 4.97954558 -2.72693904 2.97888961 -2 1 C-1.34 0.67 -0.68 0.34 0 0 Z M-6 8 C-6 8.99 -6 9.98 -6 11 C-6.99 11.33 -7.98 11.66 -9 12 C-9.33 12.66 -9.66 13.32 -10 14 C-10.33 14.66 -10.66 15.32 -11 16 C-11.99 16.33 -12.98 16.66 -14 17 C-12.4169423 12.7257442 -9.49431596 10.73468206 -6 8 Z " fill="#A35EE1" transform="translate(235,227)"/>
<path d="M0 0 C0.99 0.33 1.98 0.66 3 1 C1 3 1 3 -2.0625 3.0625 C-3.031875 3.041875 -4.00125 3.02125 -5 3 C-5.33 3.33 -5.66 3.66 -6 4 C-8.33333333 4 -10.66666667 4 -13 4 C-14.67557379 4.28520405 -16.34817245 4.59955696 -18 5 C-18 4.34 -18 3.68 -18 3 C-12.27107164 1.85829186 -6.86618024 0.84562684 -1 1 C-0.67 0.67 -0.34 0.34 0 0 Z " fill="#AE6AEA" transform="translate(466,118)"/>
<path d="M0 0 C4.95 0 9.9 0 15 0 C15.33 0.66 15.66 1.32 16 2 C10.06390334 2.89316269 4.93024803 2.97040422 -1 2 C-0.67 1.34 -0.34 0.68 0 0 Z " fill="#B16FED" transform="translate(489,116)"/>
<path d="M0 0 C3.27445016 3.11673582 6.0196297 6.46215877 8.75 10.0625 C9.54921875 11.10535156 10.3484375 12.14820313 11.171875 13.22265625 C13 16 13 16 13 19 C11.66072279 17.54712339 10.32873153 16.08752741 9 14.625 C8.2575 13.81289063 7.515 13.00078125 6.75 12.1640625 C5 10 5 10 5 8 C4.34 8 3.68 8 3 8 C0.95830515 5.09451118 0 3.59857954 0 0 Z " fill="#CBA9EE" transform="translate(161,743)"/>
<path d="M0 0 C-0.99 0.33 -1.98 0.66 -3 1 C-3 1.66 -3 2.32 -3 3 C-5.60275329 3.3893647 -8.20606349 3.76193662 -10.8125 4.125 C-11.55048828 4.23714844 -12.28847656 4.34929688 -13.04882812 4.46484375 C-18.66015625 5.2265625 -18.66015625 5.2265625 -22 3 C-19.27172635 2.49465273 -16.54255306 1.99556155 -13.8125 1.5 C-13.04357422 1.35691406 -12.27464844 1.21382812 -11.48242188 1.06640625 C-7.60578227 0.36761285 -3.958529 -0.19039017 0 0 Z " fill="#3A1676" transform="translate(566,695)"/>
<path d="M0 0 C1 3 1 3 0.328125 4.7265625 C-0.02765625 5.35304688 -0.3834375 5.97953125 -0.75 6.625 C-2.78123915 10.38732956 -4.05525282 14.1006981 -5.19140625 18.21484375 C-5.45824219 18.80394531 -5.72507812 19.39304687 -6 20 C-6.99 20.33 -7.98 20.66 -9 21 C-7.50640515 16.15713185 -5.54966433 11.68649104 -3.375 7.125 C-2.88773438 6.09246094 -2.88773438 6.09246094 -2.390625 5.0390625 C-1.59676528 3.35794781 -0.79880442 1.67877079 0 0 Z " fill="#46207E" transform="translate(739,554)"/>
<path d="M0 0 C0.66 0.66 1.32 1.32 2 2 C0.38000637 4.79460058 -1.24684022 7.58515045 -2.875 10.375 C-3.33519531 11.1690625 -3.79539063 11.963125 -4.26953125 12.78125 C-4.93662109 13.92207031 -4.93662109 13.92207031 -5.6171875 15.0859375 C-6.02565918 15.7876709 -6.43413086 16.4894043 -6.85498047 17.21240234 C-8 19 -8 19 -10 21 C-9.40334097 16.98346604 -8.11614074 14.02659753 -6.125 10.5 C-5.61195313 9.5821875 -5.09890625 8.664375 -4.5703125 7.71875 C-3.07424214 5.12853863 -1.54848219 2.55916817 0 0 Z " fill="#E4C0F5" transform="translate(144,277)"/>
<path d="M0 0 C0.99 0.33 1.98 0.66 3 1 C2.55269531 1.42410156 2.10539063 1.84820312 1.64453125 2.28515625 C-2.44951902 6.25699606 -5.813901 10.26912573 -9 15 C-9.58203125 13.140625 -9.58203125 13.140625 -10 11 C-8.6875 8.75 -8.6875 8.75 -7 7 C-6.34 7 -5.68 7 -5 7 C-5 6.34 -5 5.68 -5 5 C-4.34 5 -3.68 5 -3 5 C-2.690625 4.360625 -2.38125 3.72125 -2.0625 3.0625 C-1 1 -1 1 0 0 Z " fill="#E3C1F6" transform="translate(189,217)"/>
<path d="M0 0 C0.54398437 0.23074219 1.08796875 0.46148437 1.6484375 0.69921875 C-0.61983895 2.18243783 -2.89098153 3.66089574 -5.1640625 5.13671875 C-6.12795898 5.76803711 -6.12795898 5.76803711 -7.11132812 6.41210938 C-9.83546354 8.17644579 -12.25908421 9.66839265 -15.3515625 10.69921875 C-13.8455793 6.70393391 -11.52224565 5.14435882 -7.9765625 2.88671875 C-7.02007812 2.26152344 -6.06359375 1.63632813 -5.078125 0.9921875 C-2.3515625 -0.30078125 -2.3515625 -0.30078125 0 0 Z " fill="#A764E5" transform="translate(288.3515625,160.30078125)"/>
<path d="M0 0 C2 1 2 1 2 1 Z M0 2 C-0.65226562 2.25394531 -1.30453125 2.50789062 -1.9765625 2.76953125 C-5.86903888 4.30240912 -9.6575013 5.82240808 -13.375 7.75 C-16 9 -16 9 -20 9 C-18.40870458 5.81740916 -15.15594194 5.24629554 -12 4 C-11.113125 3.62875 -10.22625 3.2575 -9.3125 2.875 C-3.72151899 0.75949367 -3.72151899 0.75949367 0 2 Z " fill="#A864E6" transform="translate(359,147)"/>
<path d="M0 0 C0.66 0.33 1.32 0.66 2 1 C-4.27 5.29 -10.54 9.58 -17 14 C-17 13.01 -17 12.02 -17 11 C-14.55078125 9.0625 -14.55078125 9.0625 -11.3125 7 C-10.25675781 6.319375 -9.20101563 5.63875 -8.11328125 4.9375 C-6.57220703 3.9784375 -6.57220703 3.9784375 -5 3 C-4.08605469 2.401875 -3.17210937 1.80375 -2.23046875 1.1875 C-1.49441406 0.795625 -0.75835937 0.40375 0 0 Z " fill="#E3BEF7" transform="translate(276,144)"/>
<path d="M0 0 C0.66 0.33 1.32 0.66 2 1 C-2.29 5.29 -6.58 9.58 -11 14 C-11.33 13.34 -11.66 12.68 -12 12 C-11.525625 11.566875 -11.05125 11.13375 -10.5625 10.6875 C-8.76313043 8.97690387 -8.76313043 8.97690387 -8 6 C-6.15234375 4.39453125 -6.15234375 4.39453125 -3.9375 2.8125 C-3.20402344 2.28269531 -2.47054687 1.75289062 -1.71484375 1.20703125 C-1.14894531 0.80871094 -0.58304688 0.41039062 0 0 Z " fill="#E4C2F9" transform="translate(209,197)"/>
<path d="M0 0 C1.89709722 1.42282291 3.79365246 2.8462881 5.6875 4.2734375 C7.2192378 5.41706606 8.76089557 6.54753634 10.3125 7.6640625 C11.034375 8.18742188 11.75625 8.71078125 12.5 9.25 C13.1703125 9.72953125 13.840625 10.2090625 14.53125 10.703125 C15.0159375 11.13109375 15.500625 11.5590625 16 12 C16 12.66 16 13.32 16 14 C14.68 14 13.36 14 12 14 C11.608125 13.319375 11.21625 12.63875 10.8125 11.9375 C8.46772376 8.1373454 5.45559392 6.13472545 1.86328125 3.55078125 C1.24839844 3.03902344 0.63351563 2.52726563 0 2 C0 1.34 0 0.68 0 0 Z " fill="#C09CE8" transform="translate(238,825)"/>
<path d="M0 0 C0 3 0 3 -1.3125 4.38671875 C-2.875 5.59114583 -4.4375 6.79557292 -6 8 C-5.65120368 4.74456771 -4.97866739 3.98126893 -2.4375 1.75 C-1.633125 1.1725 -0.82875 0.595 0 0 Z M-7 8 C-6.34 8.66 -5.68 9.32 -5 10 C-7.31 12.31 -9.62 14.62 -12 17 C-12 12.61031544 -9.87194899 11.23094261 -7 8 Z " fill="#AB65E9" transform="translate(203,233)"/>
<path d="M0 0 C0.66 0.33 1.32 0.66 2 1 C0.39766277 2.93903849 -1.20678478 4.87626204 -2.8125 6.8125 C-3.26431641 7.35970703 -3.71613281 7.90691406 -4.18164062 8.47070312 C-6.35702693 11.09069392 -8.52526283 13.65681032 -11 16 C-10.37240135 13.07120629 -9.41377341 10.63904371 -8 8 C-7.34 8 -6.68 8 -6 8 C-5.7525 7.4225 -5.505 6.845 -5.25 6.25 C-3.83316683 3.6997003 -2.12372463 1.98214299 0 0 Z " fill="#E3BFF7" transform="translate(177,232)"/>
<path d="M0 0 C-0.73046875 1.9296875 -0.73046875 1.9296875 -2 4 C-3.98828125 4.7578125 -3.98828125 4.7578125 -6.3125 5.125 C-9.76129164 5.74800752 -12.7863516 6.54867492 -16 8 C-16.66 7.34 -17.32 6.68 -18 6 C-15.37646482 4.99600476 -12.75132205 3.99665555 -10.125 3 C-9.37863281 2.71382813 -8.63226563 2.42765625 -7.86328125 2.1328125 C-2.2265625 0 -2.2265625 0 0 0 Z " fill="#9C5ECF" transform="translate(370,100)"/>
<path d="M0 0 C0.66 0.33 1.32 0.66 2 1 C1.34 6.61 0.68 12.22 0 18 C-0.99 18.33 -1.98 18.66 -3 19 C-3 17.35 -3 15.7 -3 14 C-2.34 14 -1.68 14 -1 14 C-0.67 9.38 -0.34 4.76 0 0 Z " fill="#D8B7F4" transform="translate(86,433)"/>
<path d="M0 0 C2.20845985 0.31160461 4.41676251 0.62432346 6.625 0.9375 C7.85476563 1.11152344 9.08453125 1.28554687 10.3515625 1.46484375 C13.57556184 1.93774301 16.78812176 2.45151002 20 3 C16.10835652 4.29721449 13.10570774 4.13033993 9 4 C8.34 3.67 7.68 3.34 7 3 C5.00039988 2.960008 2.99952758 2.95653201 1 3 C0.67 2.01 0.34 1.02 0 0 Z " fill="#AC69EA" transform="translate(554,118)"/>
<path d="M0 0 C2.24940295 -0.08119503 4.49964871 -0.13927819 6.75 -0.1875 C8.00296875 -0.22230469 9.2559375 -0.25710937 10.546875 -0.29296875 C14.14109357 0.01197061 15.44725126 0.54394629 18 3 C11.59646678 3.2361959 6.15370839 2.823321 0 1 C0 0.67 0 0.34 0 0 Z " fill="#B170EC" transform="translate(520,116)"/>
<path d="M0 0 C0.98484375 0.00902344 1.9696875 0.01804687 2.984375 0.02734375 C4.10585938 0.04474609 4.10585938 0.04474609 5.25 0.0625 C1.97698081 3.03159598 -0.13065762 3.40604794 -4.5 3.25 C-5.48484375 3.22292969 -6.4696875 3.19585937 -7.484375 3.16796875 C-8.23203125 3.13316406 -8.9796875 3.09835938 -9.75 3.0625 C-9.75 2.4025 -9.75 1.7425 -9.75 1.0625 C-6.43929162 0.06140485 -3.44915231 -0.04106134 0 0 Z " fill="#B16EE9" transform="translate(494.75,94.9375)"/>
<path d="M0 0 C6.16356805 1.6658292 11.48259656 4.87805286 17 8 C15.203125 8.62109375 15.203125 8.62109375 13 9 C9.75 7.0625 9.75 7.0625 7 5 C6.01 5.495 6.01 5.495 5 6 C3.35 4.02 1.7 2.04 0 0 Z " fill="#BE99E3" transform="translate(305,871)"/>
<path d="M0 0 C-2.29077041 0.66988586 -4.58251459 1.33603162 -6.875 2 C-7.52597656 2.19078125 -8.17695312 2.3815625 -8.84765625 2.578125 C-13.7734375 4 -13.7734375 4 -16 4 C-16 2 -16 2 -14 0 C-11.7578125 -0.703125 -11.7578125 -0.703125 -9.125 -1.25 C-8.26132812 -1.44078125 -7.39765625 -1.6315625 -6.5078125 -1.828125 C-3.67209046 -2.02247355 -2.38042182 -1.48361174 0 0 Z " fill="#4F2784" transform="translate(579,694)"/>
<path d="M0 0 C-2.50012684 2.08343904 -5.14195318 3.71433305 -8 5.25 C-8.66 5.60578125 -9.32 5.9615625 -10 6.328125 C-12.39841683 7.13384316 -13.64518377 6.81998065 -16 6 C-5.62642369 -0.88838269 -5.62642369 -0.88838269 0 0 Z " fill="#AB68EA" transform="translate(340,133)"/>
<path d="M0 0 C2.97 0.495 2.97 0.495 6 1 C6 1.66 6 2.32 6 3 C6.99 2.67 7.98 2.34 9 2 C11.48046875 2.55859375 11.48046875 2.55859375 14.1875 3.4375 C15.53908203 3.86869141 15.53908203 3.86869141 16.91796875 4.30859375 C17.60503906 4.53675781 18.29210937 4.76492187 19 5 C18.67 5.66 18.34 6.32 18 7 C13.63886346 5.96918591 9.33676304 4.84940676 5.0625 3.5 C4.31097656 3.2628125 3.55945313 3.025625 2.78515625 2.78125 C1 2 1 2 0 0 Z " fill="#A967E6" transform="translate(611,107)"/>
<path d="M0 0 C0.33 0 0.66 0 1 0 C1 1.65 1 3.3 1 5 C1.66 5 2.32 5 3 5 C3 8.63 3 12.26 3 16 C-0.46562332 12.53437668 -0.45518457 11.58070789 -0.75 6.875 C-0.82734375 5.79992187 -0.9046875 4.72484375 -0.984375 3.6171875 C-0.98953125 2.75351562 -0.9946875 1.88984375 -1 1 C-0.67 0.67 -0.34 0.34 0 0 Z " fill="#6A349E" transform="translate(753,440)"/>
<path d="M0 0 C2.97734975 2.97734975 2.54377828 6.37030715 2.75 10.375 C2.80542969 11.14328125 2.86085938 11.9115625 2.91796875 12.703125 C3.31567396 19.66899207 3.31567396 19.66899207 1 23 C0.67 23 0.34 23 0 23 C0 15.41 0 7.82 0 0 Z " fill="#47157D" transform="translate(575,427)"/>
<path d="M0 0 C5.48972839 -0.23360546 10.76943854 0.18165031 16 2 C16.33 2.66 16.66 3.32 17 4 C13.7 4 10.4 4 7 4 C7 3.34 7 2.68 7 2 C4.69 1.67 2.38 1.34 0 1 C0 0.67 0 0.34 0 0 Z " fill="#48247D" transform="translate(554,354)"/>
<path d="M0 0 C0.66 0.66 1.32 1.32 2 2 C1.45730469 2.32613281 0.91460937 2.65226563 0.35546875 2.98828125 C-0.35996094 3.42527344 -1.07539063 3.86226562 -1.8125 4.3125 C-2.52019531 4.74175781 -3.22789062 5.17101562 -3.95703125 5.61328125 C-5.88960231 6.92506467 -7.41410612 8.29403845 -9 10 C-9 9.01 -9 8.02 -9 7 C-6.75 5 -6.75 5 -4 3 C-3.236875 2.4225 -2.47375 1.845 -1.6875 1.25 C-1.130625 0.8375 -0.57375 0.425 0 0 Z M-13 10 C-12.01 10.33 -11.02 10.66 -10 11 C-11.98 11.99 -11.98 11.99 -14 13 C-13.67 12.01 -13.34 11.02 -13 10 Z " fill="#A965E6" transform="translate(275,193)"/>
<path d="M0 0 C0.6084375 0.19851562 1.216875 0.39703125 1.84375 0.6015625 C0.24695196 1.9437117 -1.35895197 3.27503365 -2.96875 4.6015625 C-4.30873047 5.7153125 -4.30873047 5.7153125 -5.67578125 6.8515625 C-8.15625 8.6015625 -8.15625 8.6015625 -11.15625 8.6015625 C-4.13238365 -0.76359263 -4.13238365 -0.76359263 0 0 Z " fill="#A964E8" transform="translate(262.15625,178.3984375)"/>
<path d="M0 0 C0.66 0.33 1.32 0.66 2 1 C0.75160501 2.105981 -0.49879234 3.20970201 -1.75 4.3125 C-2.44609375 4.92738281 -3.1421875 5.54226563 -3.859375 6.17578125 C-5.85114506 7.87314734 -7.88898915 9.45477809 -10 11 C-10.66 10.67 -11.32 10.34 -12 10 C-9.22719294 6.91910327 -6.93673644 5.31224548 -3 4 C-3 3.01 -3 2.02 -3 1 C-2.01 0.67 -1.02 0.34 0 0 Z " fill="#5C27A4" transform="translate(781,825)"/>
<path d="M0 0 C0.33 0.66 0.66 1.32 1 2 C1.66 2.33 2.32 2.66 3 3 C2.34 3 1.68 3 1 3 C0.67 3.99 0.34 4.98 0 6 C-0.33 5.34 -0.66 4.68 -1 4 C-2.1446875 4.4640625 -2.1446875 4.4640625 -3.3125 4.9375 C-5.18789677 5.67893593 -7.08684652 6.36228217 -9 7 C-8 4 -8 4 -6.15234375 2.83203125 C-5.42144531 2.49558594 -4.69054687 2.15914062 -3.9375 1.8125 C-3.20402344 1.46832031 -2.47054688 1.12414062 -1.71484375 0.76953125 C-1.14894531 0.51558594 -0.58304687 0.26164063 0 0 Z " fill="#4C2689" transform="translate(432,690)"/>
<path d="M0 0 C0.99 0.33 1.98 0.66 3 1 C-5.44827586 8 -5.44827586 8 -9 8 C-7.73850149 4.21550448 -6.41155305 3.86823143 -3 2 C-2.01 1.34 -1.02 0.68 0 0 Z " fill="#875BBD" transform="translate(376,280)"/>
<path d="M0 0 C0 0.66 0 1.32 0 2 C-5.12919186 4.10428384 -9.5610835 4.21755666 -15 4 C-12.73625389 1.73625389 -11.68987631 1.51648574 -8.625 0.875 C-7.85414063 0.70742187 -7.08328125 0.53984375 -6.2890625 0.3671875 C-4 0 -4 0 0 0 Z " fill="#EFE4FA" transform="translate(449,255)"/>
<path d="M0 0 C5.98511371 0.34302035 10.75117306 0.82307843 16 4 C13.13201941 5.43399029 11.13960203 4.74810994 8 4.25 C6.9275 4.09015625 5.855 3.9303125 4.75 3.765625 C2 3 2 3 0 0 Z " fill="#AE67EA" transform="translate(577,100)"/>
<path d="M0 0 C0 0.99 0 1.98 0 3 C-1 4 -2 5 -3 6 C-3.309375 6.845625 -3.61875 7.69125 -3.9375 8.5625 C-5.21233002 11.48711004 -6.17308052 11.76072419 -9 13 C-8.07172661 11.20353564 -7.13204162 9.41296443 -6.1875 7.625 C-5.66542969 6.62726562 -5.14335938 5.62953125 -4.60546875 4.6015625 C-3 2 -3 2 0 0 Z " fill="#BC95E5" transform="translate(889,700)"/>
<path d="M0 0 C3.61569144 1.20523048 3.94669545 2.07185564 5.75 5.3125 C6.19859375 6.09238281 6.6471875 6.87226562 7.109375 7.67578125 C8 10 8 10 7 14 C5.35 10.7 3.7 7.4 2 4 C1.34 4 0.68 4 0 4 C0 2.68 0 1.36 0 0 Z " fill="#532691" transform="translate(285,577)"/>
<path d="M0 0 C1.65 0 3.3 0 5 0 C4.01 0.495 4.01 0.495 3 1 C2.67 7.6 2.34 14.2 2 21 C1.67 21 1.34 21 1 21 C0.67 14.07 0.34 7.14 0 0 Z " fill="#572394" transform="translate(405,352)"/>
<path d="M0 0 C0.66 0.33 1.32 0.66 2 1 C-4.435 5.95 -4.435 5.95 -11 11 C-11 10.01 -11 9.02 -11 8 C-9.68 7.34 -8.36 6.68 -7 6 C-7 5.34 -7 4.68 -7 4 C-1.7265625 0.77734375 -1.7265625 0.77734375 0 0 Z " fill="#E5C0F7" transform="translate(255,158)"/>
<path d="M0 0 C0.99 0 1.98 0 3 0 C3 0.66 3 1.32 3 2 C4.65 2.33 6.3 2.66 8 3 C8 3.66 8 4.32 8 5 C10.475 5.99 10.475 5.99 13 7 C12.67 7.66 12.34 8.32 12 9 C10.18146744 8.07425608 8.37031117 7.13401005 6.5625 6.1875 C5.55316406 5.66542969 4.54382813 5.14335937 3.50390625 4.60546875 C1 3 1 3 0 0 Z " fill="#AD68EB" transform="translate(708,145)"/>
<path d="M0 0 C3.96 0 7.92 0 12 0 C12 0.66 12 1.32 12 2 C13.32 2.33 14.64 2.66 16 3 C12.7 3 9.4 3 6 3 C6 2.34 6 1.68 6 1 C4.02 1 2.04 1 0 1 C0 0.67 0 0.34 0 0 Z " fill="#AF6BE7" transform="translate(539,96)"/>
<path d="M0 0 C0.66 0.66 1.32 1.32 2 2 C-0.12392506 2.6700834 -2.24917524 3.33596797 -4.375 4 C-5.55835938 4.37125 -6.74171875 4.7425 -7.9609375 5.125 C-11 6 -11 6 -13 6 C-13 5.34 -13 4.68 -13 4 C-8.71 2.68 -4.42 1.36 0 0 Z " fill="#9B60CE" transform="translate(384,95)"/>
<path d="M0 0 C0.309375 0.928125 0.309375 0.928125 0.625 1.875 C2.54095405 4.8360199 4.71223468 4.92644398 8 6 C9.875 8.125 9.875 8.125 11 10 C6.22390502 8.35821735 2.20617096 5.73453298 -2 3 C-1.34 2.01 -0.68 1.02 0 0 Z " fill="#5B22A4" transform="translate(282,853)"/>
<path d="M0 0 C0 0.66 0 1.32 0 2 C-4.50353262 3.75747614 -8.17639811 4.19294408 -13 4 C-8.93662608 1.29108405 -4.89951609 0 0 0 Z " fill="#4C257F" transform="translate(359,723)"/>
<path d="M0 0 C3.64927898 3.64927898 4.91585183 8.42923408 5.1875 13.5 C5.125625 14.325 5.06375 15.15 5 16 C2.70311431 13.70311431 2.28148697 12.21071829 1.375 9.125 C1.11460938 8.26132812 0.85421875 7.39765625 0.5859375 6.5078125 C0 4 0 4 0 0 Z " fill="#6E37A9" transform="translate(99,611)"/>
<path d="M0 0 C0.66 0 1.32 0 2 0 C0.44298069 4.67105792 -2.08447373 8.08705685 -5 12 C-6.125 8.25 -6.125 8.25 -5 6 C-4.34 6 -3.68 6 -3 6 C-3 5.34 -3 4.68 -3 4 C-2.34 3.67 -1.68 3.34 -1 3 C-0.67 2.01 -0.34 1.02 0 0 Z " fill="#A059E1" transform="translate(175,267)"/>
<path d="M0 0 C3.08496658 3.49629546 4.93180036 6.43587428 6 11 C5.54296875 13.18359375 5.54296875 13.18359375 5 15 C4.16013916 13.06532058 3.32831973 11.12714871 2.5 9.1875 C2.0359375 8.10855469 1.571875 7.02960937 1.09375 5.91796875 C0 3 0 3 0 0 Z " fill="#EADDF4" transform="translate(276,552)"/>
<path d="M0 0 C0.99 0.33 1.98 0.66 3 1 C0.03 4.96 0.03 4.96 -3 9 C-3.66 8.34 -4.32 7.68 -5 7 C-3.35 4.69 -1.7 2.38 0 0 Z " fill="#8B4BCC" transform="translate(154,265)"/>
<path d="M0 0 C0.99 0.33 1.98 0.66 3 1 C0.57869669 3.42130331 -0.80111377 3.52840504 -4.125 4.125 C-5.03507812 4.29257813 -5.94515625 4.46015625 -6.8828125 4.6328125 C-7.58148438 4.75398437 -8.28015625 4.87515625 -9 5 C-9 4.01 -9 3.02 -9 2 C-6.94921875 1.77213542 -4.8984375 1.54427083 -2.84765625 1.31640625 C-0.98859771 1.18113386 -0.98859771 1.18113386 0 0 Z " fill="#AC6AE8" transform="translate(416,127)"/>
<path d="M0 0 C2.97 0 5.94 0 9 0 C9.33 0.99 9.66 1.98 10 3 C3.375 3.125 3.375 3.125 0 2 C0 1.34 0 0.68 0 0 Z " fill="#B06BEB" transform="translate(529,95)"/>
<path d="M0 0 C0.66 0 1.32 0 2 0 C1.71812064 1.79323253 1.4241719 3.58457126 1.125 5.375 C0.96257812 6.37273438 0.80015625 7.37046875 0.6328125 8.3984375 C0 11 0 11 -2 13 C-1.85915204 11.20793453 -1.71216299 9.41635083 -1.5625 7.625 C-1.48128906 6.62726562 -1.40007812 5.62953125 -1.31640625 4.6015625 C-1 2 -1 2 0 0 Z " fill="#4F1E8C" transform="translate(331,686)"/>
<path d="M0 0 C0 3 0 3 -2.375 5.6875 C-5 8 -5 8 -7 8 C-6.875 6.25 -6.875 6.25 -6 4 C-2.9375 1.75 -2.9375 1.75 0 0 Z " fill="#461889" transform="translate(700,619)"/>
<path d="M0 0 C1.8871875 0.0309375 1.8871875 0.0309375 3.8125 0.0625 C1.90848862 1.96651138 0.47824314 2.99770439 -2.234375 3.26171875 C-4.21983273 3.2511578 -6.2044914 3.16165043 -8.1875 3.0625 C-6.45706736 -0.39836529 -3.47359009 -0.0569441 0 0 Z " fill="#B16DEB" transform="translate(479.1875,116.9375)"/>
<path d="M0 0 C3.73487777 0.4979837 5.81237635 0.87491756 9 3 C9 3.66 9 4.32 9 5 C10.32 5 11.64 5 13 5 C12.67 5.99 12.34 6.98 12 8 C12 7.34 12 6.68 12 6 C11.13375 5.9175 10.2675 5.835 9.375 5.75 C5.50735871 4.89052416 3.13222497 3.38645712 0 1 C0 0.67 0 0.34 0 0 Z " fill="#A664E5" transform="translate(686,134)"/>
<path d="M0 0 C7.38461538 -0.36923077 7.38461538 -0.36923077 10.5 1.5 C10.995 1.995 11.49 2.49 12 3 C3.42857143 3.14285714 3.42857143 3.14285714 0 2 C0 1.34 0 0.68 0 0 Z " fill="#AE6CEA" transform="translate(541,117)"/>
<path d="M0 0 C0.99 0.66 1.98 1.32 3 2 C-2.75 5 -2.75 5 -5 5 C-5.33 5.66 -5.66 6.32 -6 7 C-6.33 6.34 -6.66 5.68 -7 5 C-4.87219421 2.65941363 -2.88437779 1.29299694 0 0 Z " fill="#491E84" transform="translate(399,706)"/>
<path d="M0 0 C0.33 0 0.66 0 1 0 C0.38461538 7.50769231 0.38461538 7.50769231 -1.5625 10 C-2.036875 10.33 -2.51125 10.66 -3 11 C-3.33 10.34 -3.66 9.68 -4 9 C-3.22265625 6.8359375 -3.22265625 6.8359375 -2.0625 4.375 C-1.68222656 3.55773437 -1.30195312 2.74046875 -0.91015625 1.8984375 C-0.60980469 1.27195312 -0.30945313 0.64546875 0 0 Z " fill="#C19BE8" transform="translate(907,658)"/>
<path d="M0 0 C1.80411967 2.75924185 2.0127245 3.88972103 1.625 7.25 C1.41875 8.1575 1.2125 9.065 1 10 C0.01 10.33 -0.98 10.66 -2 11 C-1 3.57142857 -1 3.57142857 0 0 Z " fill="#5A299D" transform="translate(338,657)"/>
<path d="M0 0 C3.2626876 3.08632611 6.02235218 5.93483504 8 10 C7.67 10.66 7.34 11.32 7 12 C5.82767315 10.3790787 4.6622923 8.75313167 3.5 7.125 C2.8503125 6.22007812 2.200625 5.31515625 1.53125 4.3828125 C0 2 0 2 0 0 Z " fill="#E2C8F9" transform="translate(862,255)"/>
<path d="M0 0 C1.32 0.33 2.64 0.66 4 1 C2.90398831 2.00893131 1.79786082 3.00688225 0.6875 4 C-0.23482422 4.8353125 -0.23482422 4.8353125 -1.17578125 5.6875 C-3 7 -3 7 -6 7 C-5 4 -5 4 -3 2.9375 C-2.34 2.628125 -1.68 2.31875 -1 2 C-0.67 1.34 -0.34 0.68 0 0 Z " fill="#E0BDF4" transform="translate(233,174)"/>
<path d="M0 0 C0.99 0.33 1.98 0.66 3 1 C3 1.66 3 2.32 3 3 C3.66 3 4.32 3 5 3 C6.38232443 4.62626404 7.71937515 6.2925002 9 8 C8.67 8.66 8.34 9.32 8 10 C6.66070495 8.71451591 5.32871357 7.42141845 4 6.125 C2.88625 5.04605469 2.88625 5.04605469 1.75 3.9453125 C0 2 0 2 0 0 Z " fill="#6029A6" transform="translate(192,780)"/>
<path d="M0 0 C0.33 0.66 0.66 1.32 1 2 C-3.42778844 4.74522883 -6.71862571 6.48474397 -12 7 C-8.35140239 3.95950199 -4.2555467 2.03481238 0 0 Z " fill="#3A1576" transform="translate(632,670)"/>
<path d="M0 0 C0.66 0.33 1.32 0.66 2 1 C2.625 3.5625 2.625 3.5625 3 6 C2.34 6 1.68 6 1 6 C0.67 6.99 0.34 7.98 0 9 C-0.66 6.36 -1.32 3.72 -2 1 C-1.34 0.67 -0.68 0.34 0 0 Z " fill="#7C41B1" transform="translate(574,421)"/>
<path d="M0 0 C4.37859255 0.50522222 6.81651224 3.17827222 10 6 C9.34 6.66 8.68 7.32 8 8 C6.66102417 7.04956626 5.32894573 6.08940853 4 5.125 C3.2575 4.59132812 2.515 4.05765625 1.75 3.5078125 C1.1725 3.01023438 0.595 2.51265625 0 2 C0 1.34 0 0.68 0 0 Z " fill="#9052C7" transform="translate(790,180)"/>
<path d="M0 0 C0 0.99 0 1.98 0 3 C-2.87501211 5.07639763 -5.51375944 6.3543999 -9 7 C-9 6.34 -9 5.68 -9 5 C-6.03 3.35 -3.06 1.7 0 0 Z " fill="#935ACA" transform="translate(311,125)"/>
<path d="M0 0 C0.99 0.33 1.98 0.66 3 1 C1.8803014 2.00593243 0.7540588 3.0045849 -0.375 4 C-1.00148438 4.556875 -1.62796875 5.11375 -2.2734375 5.6875 C-4 7 -4 7 -6 7 C-5.34 5.68 -4.68 4.36 -4 3 C-3.01 3 -2.02 3 -1 3 C-0.67 2.01 -0.34 1.02 0 0 Z " fill="#EEE4F5" transform="translate(669,643)"/>
<path d="M0 0 C0.33 0.99 0.66 1.98 1 3 C-1.3125 5.0625 -1.3125 5.0625 -4 7 C-4.99 6.67 -5.98 6.34 -7 6 C-4.69 4.02 -2.38 2.04 0 0 Z " fill="#391573" transform="translate(684,633)"/>
<path d="M0 0 C0 0.99 0 1.98 0 3 C-5.34883721 8 -5.34883721 8 -8 8 C-6.88333826 4.65001479 -6.25305075 4.20659778 -3.4375 2.3125 C-2.79683594 1.87550781 -2.15617187 1.43851563 -1.49609375 0.98828125 C-1.00238281 0.66214844 -0.50867188 0.33601562 0 0 Z " fill="#9254CA" transform="translate(263,154)"/>
<path d="M0 0 C1.2065625 0.0309375 1.2065625 0.0309375 2.4375 0.0625 C2.4375 0.7225 2.4375 1.3825 2.4375 2.0625 C-0.71756142 2.99869813 -3.52836502 3.1682123 -6.8125 3.125 C-7.70453125 3.11597656 -8.5965625 3.10695313 -9.515625 3.09765625 C-10.19109375 3.08605469 -10.8665625 3.07445313 -11.5625 3.0625 C-11.5625 2.7325 -11.5625 2.4025 -11.5625 2.0625 C-9.51171875 1.83463542 -7.4609375 1.60677083 -5.41015625 1.37890625 C-2.80458624 0.93270927 -2.89290947 0.07055877 0 0 Z " fill="#B974F2" transform="translate(479.5625,95.9375)"/>
<path d="M0 0 C0.75 1.75 0.75 1.75 1 4 C-0.9375 6.25 -0.9375 6.25 -3 8 C-3.33 7.01 -3.66 6.02 -4 5 C-2.0625 2.3125 -2.0625 2.3125 0 0 Z " fill="#BD96E7" transform="translate(868,732)"/>
<path d="M0 0 C-2.85306797 2.32472205 -5.54074837 3.7508258 -9 5 C-9 4.01 -9 3.02 -9 2 C-5.86501708 0.14223235 -3.62528568 -0.20140476 0 0 Z " fill="#ECE3F2" transform="translate(641,665)"/>
<path d="M0 0 C0.66 0.99 1.32 1.98 2 3 C0.68 5.31 -0.64 7.62 -2 10 C-3.39195915 5.82412255 -1.82323219 3.86525224 0 0 Z " fill="#501C80" transform="translate(743,544)"/>
<path d="M0 0 C0.66 0.66 1.32 1.32 2 2 C-0.31 4.64 -2.62 7.28 -5 10 C-5 6.89448334 -4.4606285 5.64738916 -3 3 C-2.34 3 -1.68 3 -1 3 C-0.67 2.01 -0.34 1.02 0 0 Z " fill="#744CB1" transform="translate(318,327)"/>
<path d="M0 0 C0.99 0.99 1.98 1.98 3 3 C-0.465 4.485 -0.465 4.485 -4 6 C-4 5.01 -4 4.02 -4 3 C-3.34 3 -2.68 3 -2 3 C-2 2.34 -2 1.68 -2 1 C-1.34 0.67 -0.68 0.34 0 0 Z " fill="#8F5CCC" transform="translate(388,273)"/>
<path d="M0 0 C0.99 0.33 1.98 0.66 3 1 C0.36 2.98 -2.28 4.96 -5 7 C-5 6.01 -5 5.02 -5 4 C-2.6875 1.75 -2.6875 1.75 0 0 Z " fill="#A761E5" transform="translate(248,188)"/>
<path d="M0 0 C0 4.38968456 -2.12805101 5.76905739 -5 9 C-5.66 8.67 -6.32 8.34 -7 8 C-4.69 5.36 -2.38 2.72 0 0 Z " fill="#40216F" transform="translate(704,612)"/>
<path d="M0 0 C1.48253267 0.61697319 2.96095174 1.24383896 4.4375 1.875 C5.67306641 2.39707031 5.67306641 2.39707031 6.93359375 2.9296875 C9 4 9 4 10 6 C6.05879291 5.43697042 3.2491277 4.3208055 0 2 C0 1.34 0 0.68 0 0 Z " fill="#A660E5" transform="translate(682,155)"/>
<path d="M0 0 C3.11373372 1.49920512 6.12228205 3.08152136 9 5 C9 5.66 9 6.32 9 7 C5.18315774 5.44499019 2.80804268 2.96404505 0 0 Z " fill="#59229E" transform="translate(243,828)"/>
<path d="M0 0 C0.66 0.33 1.32 0.66 2 1 C1.67 1.66 1.34 2.32 1 3 C-1.64860427 3.59355614 -4.29197322 3.74209269 -7 4 C-4.61426621 2.10786631 -2.92824652 0.97608217 0 0 Z " fill="#3A1578" transform="translate(391,710)"/>
<path d="M0 0 C4.8 3.44615385 4.8 3.44615385 5.8125 6.25 C5.874375 6.8275 5.93625 7.405 6 8 C1.3125 4.38671875 1.3125 4.38671875 0 3 C0 2.01 0 1.02 0 0 Z " fill="#4F2480" transform="translate(309,612)"/>
<path d="M0 0 C0.66 0.33 1.32 0.66 2 1 C0.35 3.64 -1.3 6.28 -3 9 C-3.33 8.01 -3.66 7.02 -4 6 C-2.0625 2.8125 -2.0625 2.8125 0 0 Z " fill="#F3E6F7" transform="translate(720,587)"/>
<path d="M0 0 C4.875 2.625 4.875 2.625 6 6 C5.34 6.66 4.68 7.32 4 8 C4 7.01 4 6.02 4 5 C3.34 5 2.68 5 2 5 C1.34 3.35 0.68 1.7 0 0 Z " fill="#552991" transform="translate(618,389)"/>
</svg>
